<?xml version="1.0" encoding="UTF-8"?><svg id="Layer_2" xmlns="http://www.w3.org/2000/svg" viewBox="0 0 82.92 82.01"><defs><style>.cls-1{fill:#e8eeef;stroke-width:0px;}</style></defs><g id="Layer_1-2"><path class="cls-1" d="m64.43,31.64c1.45,2.81,2.27,5.99,2.27,9.37s-.82,6.56-2.27,9.36h0s18.49-9.36,18.49-9.36l-18.49-9.37Zm5.36,12.99c.18-1.18.28-2.4.28-3.63s-.09-2.45-.28-3.63h0s7.18,3.63,7.18,3.63l-7.18,3.64h0Zm-51.31,5.73h0c-1.45-2.81-2.26-5.99-2.26-9.36s.81-6.55,2.26-9.36h0S0,41.01,0,41.01l18.48,9.36Zm22.98-34.05c3.4,0,6.6.83,9.43,2.3L41.46,0l-9.43,18.61h0c2.82-1.46,6.02-2.3,9.42-2.3Zm-9.3,47.33l9.3,18.36,9.3-18.36c-2.79,1.43-5.95,2.23-9.3,2.23s-6.51-.81-9.3-2.24Zm-.51-8.03h19.44v-5.3h-13.47v-6.67h13.06v-5.26h-13.06v-6.67h13.47v-5.3h-19.44v29.2Z"/></g></svg>