<?xml version="1.0" encoding="UTF-8"?><svg id="Layer_2" xmlns="http://www.w3.org/2000/svg" viewBox="0 0 956.29 221.9"><defs><style>.cls-1{fill:#1d1d1d;stroke-width:0px;}</style></defs><g id="Layer_1-2"><path class="cls-1" d="m134.78,171.89l-25.33,50.01-25.34-50.02c7.61,3.9,16.22,6.09,25.34,6.09s17.72-2.2,25.33-6.08Z"/><path class="cls-1" d="m135.13,50.71c-7.69-4-16.42-6.26-25.68-6.26s-17.98,2.27-25.67,6.26h-.01L109.45,0l25.68,50.71Z"/><path class="cls-1" d="m145.54,110.95c0-11.46,3.97-21.22,12.03-29.06,8.06-7.83,17.93-11.8,29.74-11.8,8.74,0,16.34,2.27,22.93,6.7,6.58,4.43,11.35,9.87,14.19,16.34l-14.98,5.79c-3.97-8.17-12.14-13.96-22.13-13.96-7.04,0-12.94,2.5-17.71,7.49-4.88,4.99-7.26,11.12-7.26,18.5s2.38,13.51,7.26,18.5c4.77,4.99,10.67,7.49,17.71,7.49,9.99,0,18.16-5.79,22.13-13.96l14.98,5.79c-2.84,6.47-7.6,11.92-14.19,16.34-6.58,4.43-14.19,6.7-22.93,6.7-11.8,0-21.68-3.97-29.74-11.8-8.06-7.83-12.03-17.59-12.03-29.05Z"/><path class="cls-1" d="m231.91,110.95c0-11.46,3.97-21.22,12.03-29.06,8.06-7.83,17.93-11.8,29.74-11.8s21.68,3.97,29.74,11.8,12.03,17.59,12.03,29.06-3.97,21.22-12.03,29.05-17.93,11.8-29.74,11.8-21.68-3.97-29.74-11.8c-8.06-7.83-12.03-17.59-12.03-29.05Zm16.8,0c0,7.38,2.38,13.51,7.26,18.5,4.77,4.99,10.67,7.49,17.71,7.49s13.05-2.5,17.82-7.49c4.77-4.99,7.15-11.12,7.15-18.5s-2.38-13.51-7.15-18.5c-4.77-4.99-10.67-7.49-17.82-7.49s-12.94,2.5-17.71,7.49c-4.88,4.99-7.26,11.12-7.26,18.5Z"/><path class="cls-1" d="m382.65,147.16v-75.93h16.23v79.45h-31.55l-23.27-75.93v75.93h-16.23v-79.45h31.44l23.38,75.93Z"/><path class="cls-1" d="m412.2,110.95c0-11.46,3.97-21.22,12.03-29.06,8.06-7.83,17.93-11.8,29.74-11.8s21.68,3.97,29.74,11.8c8.06,7.83,12.03,17.59,12.03,29.06s-3.97,21.22-12.03,29.05c-8.06,7.83-17.93,11.8-29.74,11.8s-21.68-3.97-29.74-11.8c-8.06-7.83-12.03-17.59-12.03-29.05Zm16.8,0c0,7.38,2.38,13.51,7.26,18.5,4.77,4.99,10.67,7.49,17.71,7.49s13.05-2.5,17.82-7.49c4.77-4.99,7.15-11.12,7.15-18.5s-2.38-13.51-7.15-18.5c-4.77-4.99-10.67-7.49-17.82-7.49s-12.94,2.5-17.71,7.49c-4.88,4.99-7.26,11.12-7.26,18.5Z"/><path class="cls-1" d="m595.35,71.23v79.45h-15.32v-75.25l-14.19,75.25h-28.71l-14.19-75.82v75.82h-15.32v-79.45h29.96l14.07,75.25,14.19-75.25h29.51Z"/><path class="cls-1" d="m689.15,150.67h-17.37l-5.67-17.25h-37.34l-5.56,17.25h-16.46l26.79-79.45h28.83l26.79,79.45Zm-41.65-74.68l-14.07,43.02h28.03l-13.96-43.02Z"/><path class="cls-1" d="m726.07,150.67h-16.23v-65.03h-24.29v-14.41h64.92v14.41h-24.4v65.03Z"/><path class="cls-1" d="m779.13,150.67h-16.23v-79.45h16.23v79.45Z"/><path class="cls-1" d="m791.96,110.95c0-11.46,3.97-21.22,12.03-29.06,8.06-7.83,17.93-11.8,29.74-11.8,8.74,0,16.34,2.27,22.93,6.7,6.58,4.43,11.35,9.87,14.19,16.34l-14.98,5.79c-3.97-8.17-12.14-13.96-22.13-13.96-7.04,0-12.94,2.5-17.71,7.49-4.88,4.99-7.26,11.12-7.26,18.5s2.38,13.51,7.26,18.5c4.77,4.99,10.67,7.49,17.71,7.49,9.99,0,18.16-5.79,22.13-13.96l14.98,5.79c-2.84,6.47-7.6,11.92-14.19,16.34-6.58,4.43-14.19,6.7-22.93,6.7-11.8,0-21.68-3.97-29.74-11.8-8.06-7.83-12.03-17.59-12.03-29.05Z"/><path class="cls-1" d="m956.29,150.67h-17.37l-5.67-17.25h-37.34l-5.56,17.25h-16.46l26.79-79.45h28.83l26.79,79.45Zm-41.65-74.68l-14.07,43.02h28.03l-13.96-43.02Z"/><path class="cls-1" d="m135.68,150.73h-52.96v-79.55h52.96v14.43h-36.71v18.18h35.57v14.32h-35.57v18.18h36.71v14.43Z"/><path class="cls-1" d="m50.35,85.46c-3.94,7.64-6.16,16.32-6.16,25.49s2.22,17.85,6.16,25.49h0S0,110.95,0,110.95l50.35-25.51h0Z"/></g></svg>