<svg width="673" height="204" viewBox="0 0 673 204" fill="none" xmlns="http://www.w3.org/2000/svg">
<g clip-path="url(#clip0_5066_4807)">
<path d="M168.241 0H0V10.7361H168.241V0Z" fill="#CECA37"/>
<path d="M504.754 64.4163H336.513V107.36H504.754V64.4163Z" fill="#CECA37"/>
<path d="M336.255 42.9443H168.014V64.4165H336.255V42.9443Z" fill="#CECA37"/>
<path d="M338.102 85.8835H168.014V107.356H338.102V85.8835Z" fill="#CECA37"/>
<path d="M168.014 21.4722H0V32.2082H168.014V21.4722Z" fill="#CECA37"/>
<path d="M168.241 42.9443H0V53.6804H168.241V42.9443Z" fill="#CECA37"/>
<path d="M168.014 64.4163H0V75.1523H168.014V64.4163Z" fill="#CECA37"/>
<path d="M168.241 85.8835H0V96.6196H168.241V85.8835Z" fill="#CECA37"/>
<path d="M673 107.38H504.759V150.325H673V107.38Z" fill="#CECA37"/>
<path d="M504.754 150.32H336.513V193.264H504.754V150.32Z" fill="#CECA37"/>
<path d="M336.255 128.853H168.014V150.325H336.255V128.853Z" fill="#CECA37"/>
<path d="M336.255 85.9082H168.014V107.38H336.255V85.9082Z" fill="#CECA37"/>
<path d="M338.102 171.792H168.014V193.264H338.102V171.792Z" fill="#CECA37"/>
<path d="M168.014 107.38H0V118.116H168.014V107.38Z" fill="#CECA37"/>
<path d="M168.014 85.9082H0V96.6443H168.014V85.9082Z" fill="#CECA37"/>
<path d="M168.241 128.853H0V139.589H168.241V128.853Z" fill="#CECA37"/>
<path d="M168.014 150.32H0V161.056H168.014V150.32Z" fill="#CECA37"/>
<path d="M168.241 171.792H0V182.528H168.241V171.792Z" fill="#CECA37"/>
<path d="M168.014 193.264H0V204H168.014V193.264Z" fill="#CECA37"/>
</g>
<defs>
<clipPath id="clip0_5066_4807">
<rect width="673" height="204" fill="white"/>
</clipPath>
</defs>
</svg>
