<svg width="16" height="17" viewBox="0 0 16 17" fill="none" xmlns="http://www.w3.org/2000/svg">
<g clip-path="url(#clip0_5813_2717)">
<path d="M7.99996 15.5532C11.7871 15.5532 14.8571 12.4831 14.8571 8.69601C14.8571 4.90891 11.7871 1.83887 7.99996 1.83887C4.21287 1.83887 1.14282 4.90891 1.14282 8.69601C1.14282 12.4831 4.21287 15.5532 7.99996 15.5532Z" fill="#19A602"/>
<path d="M7.99993 4.6958L13.7142 8.6958L7.99993 12.6958L2.28564 8.6958L7.99993 4.6958Z" fill="#FFDA44"/>
<path d="M7.99995 10.9816C9.26231 10.9816 10.2857 9.95824 10.2857 8.69587C10.2857 7.43351 9.26231 6.41016 7.99995 6.41016C6.73758 6.41016 5.71423 7.43351 5.71423 8.69587C5.71423 9.95824 6.73758 10.9816 7.99995 10.9816Z" fill="#F0F0F0"/>
<path d="M6.80737 8.54688C6.39262 8.54688 5.99237 8.60996 5.6156 8.72701C5.63229 10.0299 6.6931 11.081 7.99992 11.081C8.80799 11.081 9.52166 10.6788 9.9531 10.064C9.21497 9.14002 8.07923 8.54688 6.80737 8.54688Z" fill="#0052B4"/>
<path d="M10.3408 9.15308C10.3695 9.00512 10.3851 8.85246 10.3851 8.69612C10.3851 7.37885 9.31722 6.31104 7.99999 6.31104C7.01712 6.31104 6.17337 6.9057 5.80823 7.75476C6.13099 7.68787 6.46517 7.65265 6.80746 7.65265C8.19274 7.65262 9.44593 8.22846 10.3408 9.15308Z" fill="#0052B4"/>
</g>
<defs>
<clipPath id="clip0_5813_2717">
<rect width="13.7143" height="13.7143" fill="white" transform="translate(1.14282 1.83887)"/>
</clipPath>
</defs>
</svg>
