<svg width="492" height="136" viewBox="0 0 492 136" fill="none" xmlns="http://www.w3.org/2000/svg">
<g clip-path="url(#clip0_5444_5017)">
<path d="M164.44 58.285L0 58.285L3.3968e-06 19.4301L164.44 19.4301L164.44 58.285Z" fill="#D1CD4B"/>
<path d="M328.879 97.14L164.439 97.1399L164.439 58.285L328.879 58.285L328.879 97.14Z" fill="#D1CD4B"/>
<path d="M328.879 38.855L164.439 38.8549L164.439 19.4249L328.879 19.4249L328.879 38.855Z" fill="#D1CD4B"/>
<path d="M492 58.285L329.135 58.285L329.135 38.855L492 38.855L492 58.285Z" fill="#D1CD4B"/>
<path d="M492 19.4249L329.135 19.4249L329.135 -0.00518036L492 -0.00516612L492 19.4249Z" fill="#D1CD4B"/>
<path d="M492 97.14L327.331 97.14L327.331 77.7099L492 77.7099L492 97.14Z" fill="#D1CD4B"/>
<path d="M164.44 136L0 136L3.39726e-06 97.1399L164.44 97.1399L164.44 136Z" fill="#D1CD4B"/>
<path d="M492 136L329.135 136L329.135 116.57L492 116.57L492 136Z" fill="#D1CD4B"/>
</g>
<defs>
<clipPath id="clip0_5444_5017">
<rect width="492" height="136" fill="white" transform="matrix(1 8.74228e-08 8.74228e-08 -1 0 136)"/>
</clipPath>
</defs>
</svg>
