<svg width="22" height="23" viewBox="0 0 22 23" fill="none" xmlns="http://www.w3.org/2000/svg">
<g clip-path="url(#clip0_5813_2696)">
<path d="M19.6743 2.16699H2.3257C1.90848 2.16699 1.57141 2.50406 1.57141 2.92128V20.2698C1.57141 20.6871 1.90848 21.0241 2.3257 21.0241H19.6743C20.0915 21.0241 20.4286 20.6871 20.4286 20.2698V2.92128C20.4286 2.50406 20.0915 2.16699 19.6743 2.16699ZM17.4963 7.67092H15.9901C14.8091 7.67092 14.5805 8.23192 14.5805 9.05692V10.8743H17.3996L17.0319 13.7193H14.5805V21.0241H11.6411V13.7217H9.18263V10.8743H11.6411V8.77642C11.6411 6.34149 13.1285 5.01442 15.3018 5.01442C16.3436 5.01442 17.237 5.09221 17.4986 5.12756V7.67092H17.4963Z" fill="#D1CD4B"/>
</g>
<defs>
<clipPath id="clip0_5813_2696">
<rect width="18.8571" height="18.8571" fill="white" transform="translate(1.57141 2.16699)"/>
</clipPath>
</defs>
</svg>
