<svg width="28" height="28" viewBox="0 0 28 28" fill="none" xmlns="http://www.w3.org/2000/svg">
<path d="M10.9377 12.7345C11.0707 12.6577 11.1812 12.5472 11.258 12.4142C11.3348 12.2811 11.3752 12.1302 11.3752 11.9766V4.10156C11.3744 3.96206 11.3403 3.82477 11.2756 3.70113C11.211 3.5775 11.1178 3.47111 11.0037 3.39083C10.8896 3.31056 10.7579 3.25873 10.6197 3.23967C10.4815 3.22061 10.3408 3.23486 10.2092 3.28125C7.65529 4.18514 5.50754 5.97039 4.15205 8.31608C2.79657 10.6618 2.32226 13.414 2.81438 16.0781C2.83989 16.2159 2.89811 16.3455 2.98414 16.4561C3.07017 16.5667 3.18149 16.655 3.30875 16.7136C3.42344 16.7672 3.54855 16.7949 3.67516 16.7945C3.82874 16.7946 3.97962 16.7542 4.11266 16.6775L10.9377 12.7345ZM9.62516 5.42719V11.4712L4.38829 14.4933C4.37516 14.3281 4.37516 14.1619 4.37516 14C4.37671 12.2263 4.86767 10.4875 5.79397 8.97492C6.72027 7.46235 8.04598 6.23472 9.62516 5.42719ZM14.0002 2.625C13.7681 2.625 13.5455 2.71719 13.3814 2.88128C13.2173 3.04538 13.1252 3.26794 13.1252 3.5V13.5428L4.50532 18.5642C4.40529 18.6222 4.31775 18.6994 4.24774 18.7915C4.17774 18.8835 4.12667 18.9885 4.09748 19.1003C4.0683 19.2122 4.06157 19.3287 4.07769 19.4432C4.09381 19.5577 4.13246 19.6679 4.19141 19.7673C5.20171 21.4849 6.64546 22.9069 8.37813 23.891C10.1108 24.8751 12.0716 25.3868 14.0642 25.3748C16.0568 25.3628 18.0113 24.8277 19.732 23.8228C21.4527 22.818 22.8793 21.3788 23.8689 19.6493C24.8585 17.9198 25.3765 15.9606 25.3709 13.968C25.3653 11.9754 24.8363 10.0192 23.837 8.29526C22.8376 6.57133 21.403 5.14017 19.6766 4.14504C17.9503 3.14992 15.9928 2.62574 14.0002 2.625ZM14.0002 23.625C12.4727 23.6209 10.9679 23.2553 9.60882 22.558C8.24978 21.8607 7.07512 20.8515 6.18094 19.6131L14.4409 14.8006C14.5738 14.7239 14.6842 14.6136 14.761 14.4807C14.8378 14.3479 14.8783 14.1972 14.8784 14.0437V4.41438C17.3464 4.63829 19.6329 5.80545 21.2619 7.67288C22.8909 9.5403 23.7369 11.9641 23.6237 14.4396C23.5105 16.9151 22.4469 19.2516 20.6543 20.9626C18.8617 22.6736 16.4783 23.6272 14.0002 23.625Z" fill="#1D1D1D"/>
</svg>
