<svg width="29" height="28" viewBox="0 0 29 28" fill="none" xmlns="http://www.w3.org/2000/svg">
<path d="M25.0002 14C25.0002 14.2321 24.908 14.4546 24.7439 14.6187C24.5798 14.7828 24.3573 14.875 24.1252 14.875H12.7502C12.5181 14.875 12.2956 14.7828 12.1315 14.6187C11.9674 14.4546 11.8752 14.2321 11.8752 14C11.8752 13.7679 11.9674 13.5454 12.1315 13.3813C12.2956 13.2172 12.5181 13.125 12.7502 13.125H24.1252C24.3573 13.125 24.5798 13.2172 24.7439 13.3813C24.908 13.5454 25.0002 13.7679 25.0002 14ZM12.7502 7.875H24.1252C24.3573 7.875 24.5798 7.78281 24.7439 7.61872C24.908 7.45462 25.0002 7.23206 25.0002 7C25.0002 6.76793 24.908 6.54537 24.7439 6.38128C24.5798 6.21719 24.3573 6.125 24.1252 6.125H12.7502C12.5181 6.125 12.2956 6.21719 12.1315 6.38128C11.9674 6.54537 11.8752 6.76793 11.8752 7C11.8752 7.23206 11.9674 7.45462 12.1315 7.61872C12.2956 7.78281 12.5181 7.875 12.7502 7.875ZM24.1252 20.125H4.8752C4.64314 20.125 4.42058 20.2172 4.25648 20.3813C4.09239 20.5454 4.0002 20.7679 4.0002 21C4.0002 21.2321 4.09239 21.4546 4.25648 21.6187C4.42058 21.7828 4.64314 21.875 4.8752 21.875H24.1252C24.3573 21.875 24.5798 21.7828 24.7439 21.6187C24.908 21.4546 25.0002 21.2321 25.0002 21C25.0002 20.7679 24.908 20.5454 24.7439 20.3813C24.5798 20.2172 24.3573 20.125 24.1252 20.125ZM4.25614 15.4941C4.3374 15.5754 4.4339 15.64 4.54013 15.684C4.64635 15.728 4.76021 15.7507 4.8752 15.7507C4.99019 15.7507 5.10405 15.728 5.21027 15.684C5.3165 15.64 5.413 15.5754 5.49426 15.4941L9.86926 11.1191C9.95062 11.0378 10.0152 10.9413 10.0592 10.8351C10.1032 10.7288 10.1259 10.615 10.1259 10.5C10.1259 10.385 10.1032 10.2711 10.0592 10.1649C10.0152 10.0587 9.95062 9.9622 9.86926 9.88094L5.49426 5.50594C5.33008 5.34175 5.10739 5.24951 4.8752 5.24951C4.64301 5.24951 4.42032 5.34175 4.25614 5.50594C4.09195 5.67012 3.99971 5.8928 3.99971 6.125C3.99971 6.35719 4.09195 6.57988 4.25614 6.74406L8.01317 10.5L4.25614 14.2559C4.17478 14.3372 4.11024 14.4337 4.06621 14.5399C4.02218 14.6461 3.99951 14.76 3.99951 14.875C3.99951 14.99 4.02218 15.1038 4.06621 15.2101C4.11024 15.3163 4.17478 15.4128 4.25614 15.4941Z" fill="#D1CD4B"/>
</svg>
