<svg width="36" height="36" viewBox="0 0 36 36" fill="none" xmlns="http://www.w3.org/2000/svg">
<rect width="36" height="36" rx="8" fill="#D1CD4B" fill-opacity="0.1"/>
<path d="M24.875 13H12.375C12.2092 13 12.0503 12.9342 11.9331 12.8169C11.8158 12.6997 11.75 12.5408 11.75 12.375C11.75 12.2092 11.8158 12.0503 11.9331 11.9331C12.0503 11.8158 12.2092 11.75 12.375 11.75H23C23.1658 11.75 23.3247 11.6842 23.4419 11.5669C23.5592 11.4497 23.625 11.2908 23.625 11.125C23.625 10.9592 23.5592 10.8003 23.4419 10.6831C23.3247 10.5658 23.1658 10.5 23 10.5H12.375C11.8777 10.5 11.4008 10.6975 11.0492 11.0492C10.6975 11.4008 10.5 11.8777 10.5 12.375V22.375C10.5 22.8723 10.6975 23.3492 11.0492 23.7008C11.4008 24.0525 11.8777 24.25 12.375 24.25H24.875C25.2065 24.25 25.5245 24.1183 25.7589 23.8839C25.9933 23.6495 26.125 23.3315 26.125 23V14.25C26.125 13.9185 25.9933 13.6005 25.7589 13.3661C25.5245 13.1317 25.2065 13 24.875 13ZM24.875 23H12.375C12.2092 23 12.0503 22.9342 11.9331 22.8169C11.8158 22.6997 11.75 22.5408 11.75 22.375V14.143C11.9507 14.2141 12.1621 14.2503 12.375 14.25H24.875V23ZM21.125 18.3125C21.125 18.1271 21.18 17.9458 21.283 17.7917C21.386 17.6375 21.5324 17.5173 21.7037 17.4464C21.875 17.3754 22.0635 17.3568 22.2454 17.393C22.4273 17.4292 22.5943 17.5185 22.7254 17.6496C22.8565 17.7807 22.9458 17.9477 22.982 18.1296C23.0182 18.3115 22.9996 18.5 22.9286 18.6713C22.8577 18.8426 22.7375 18.989 22.5833 19.092C22.4292 19.195 22.2479 19.25 22.0625 19.25C21.8139 19.25 21.5754 19.1512 21.3996 18.9754C21.2238 18.7996 21.125 18.5611 21.125 18.3125Z" fill="#D1CD4B"/>
</svg>
