<svg width="36" height="36" viewBox="0 0 36 36" fill="none" xmlns="http://www.w3.org/2000/svg">
<rect width="36" height="36" rx="8" fill="#D1CD4B" fill-opacity="0.1"/>
<path d="M9.875 16.125H11.75V21.125H10.5C10.3342 21.125 10.1753 21.1908 10.0581 21.308C9.94085 21.4252 9.875 21.5842 9.875 21.75C9.875 21.9157 9.94085 22.0747 10.0581 22.1919C10.1753 22.3091 10.3342 22.375 10.5 22.375H25.5C25.6658 22.375 25.8247 22.3091 25.9419 22.1919C26.0592 22.0747 26.125 21.9157 26.125 21.75C26.125 21.5842 26.0592 21.4252 25.9419 21.308C25.8247 21.1908 25.6658 21.125 25.5 21.125H24.25V16.125H26.125C26.261 16.1248 26.3932 16.0804 26.5016 15.9983C26.6101 15.9162 26.6887 15.801 26.7258 15.6701C26.7628 15.5393 26.7561 15.3999 26.7068 15.2732C26.6574 15.1465 26.5681 15.0393 26.4523 14.9679L18.3273 9.96795C18.2289 9.90741 18.1156 9.87537 18 9.87537C17.8844 9.87537 17.7711 9.90741 17.6727 9.96795L9.54766 14.9679C9.4319 15.0393 9.34257 15.1465 9.29323 15.2732C9.24388 15.3999 9.23722 15.5393 9.27424 15.6701C9.31126 15.801 9.38994 15.9162 9.49836 15.9983C9.60678 16.0804 9.73901 16.1248 9.875 16.125ZM13 16.125H15.5V21.125H13V16.125ZM19.25 16.125V21.125H16.75V16.125H19.25ZM23 21.125H20.5V16.125H23V21.125ZM18 11.2336L23.9172 14.875H12.0828L18 11.2336ZM27.375 24.25C27.375 24.4157 27.3092 24.5747 27.1919 24.6919C27.0747 24.8091 26.9158 24.875 26.75 24.875H9.25C9.08424 24.875 8.92527 24.8091 8.80806 24.6919C8.69085 24.5747 8.625 24.4157 8.625 24.25C8.625 24.0842 8.69085 23.9252 8.80806 23.808C8.92527 23.6908 9.08424 23.625 9.25 23.625H26.75C26.9158 23.625 27.0747 23.6908 27.1919 23.808C27.3092 23.9252 27.375 24.0842 27.375 24.25Z" fill="#D1CD4B"/>
</svg>
