<svg width="28" height="28" viewBox="0 0 28 28" fill="none" xmlns="http://www.w3.org/2000/svg">
<path d="M7.83022 6.72328C7.77217 6.54902 7.66076 6.39744 7.51176 6.29002C7.36276 6.18261 7.18374 6.12481 7.00006 6.12481C6.81639 6.12481 6.63737 6.18261 6.48837 6.29002C6.33937 6.39744 6.22796 6.54902 6.16991 6.72328L1.79491 19.8483C1.75106 19.9798 1.7391 20.1199 1.76001 20.257C1.78092 20.394 1.8341 20.5242 1.91518 20.6366C1.99625 20.7491 2.10289 20.8407 2.22632 20.9039C2.34974 20.9671 2.48641 21 2.62506 21H11.3751C11.5137 21 11.6504 20.9671 11.7738 20.9039C11.8972 20.8407 12.0039 20.7491 12.085 20.6366C12.166 20.5242 12.2192 20.394 12.2401 20.257C12.261 20.1199 12.2491 19.9798 12.2052 19.8483L7.83022 6.72328ZM3.83913 19.25L7.00006 9.76719L10.161 19.25H3.83913ZM22.7501 8.3125C22.7501 7.18762 22.4165 6.088 21.7915 5.1527C21.1666 4.21739 20.2783 3.48841 19.2391 3.05794C18.1998 2.62746 17.0563 2.51483 15.953 2.73429C14.8497 2.95374 13.8363 3.49542 13.0409 4.29083C12.2455 5.08624 11.7038 6.09966 11.4843 7.20293C11.2649 8.30619 11.3775 9.44976 11.808 10.489C12.2385 11.5283 12.9675 12.4165 13.9028 13.0415C14.8381 13.6664 15.9377 14 17.0626 14C18.5704 13.9983 20.0161 13.3985 21.0823 12.3323C22.1486 11.266 22.7483 9.82039 22.7501 8.3125ZM13.1251 8.3125C13.1251 7.53374 13.356 6.77246 13.7887 6.12494C14.2213 5.47743 14.8363 4.97275 15.5557 4.67473C16.2752 4.37671 17.0669 4.29873 17.8307 4.45066C18.5945 4.60259 19.2961 4.9776 19.8468 5.52827C20.3975 6.07894 20.7725 6.78053 20.9244 7.54433C21.0763 8.30813 20.9984 9.09983 20.7003 9.81932C20.4023 10.5388 19.8976 11.1538 19.2501 11.5864C18.6026 12.0191 17.8413 12.25 17.0626 12.25C16.0183 12.25 15.0168 11.8352 14.2783 11.0967C13.5399 10.3583 13.1251 9.35679 13.1251 8.3125ZM24.5001 15.75H14.8751C14.643 15.75 14.4204 15.8422 14.2563 16.0063C14.0923 16.1704 14.0001 16.3929 14.0001 16.625V22.75C14.0001 22.9821 14.0923 23.2046 14.2563 23.3687C14.4204 23.5328 14.643 23.625 14.8751 23.625H24.5001C24.7321 23.625 24.9547 23.5328 25.1188 23.3687C25.2829 23.2046 25.3751 22.9821 25.3751 22.75V16.625C25.3751 16.3929 25.2829 16.1704 25.1188 16.0063C24.9547 15.8422 24.7321 15.75 24.5001 15.75ZM23.6251 21.875H15.7501V17.5H23.6251V21.875Z" fill="#023A4A"/>
</svg>
