<svg width="20" height="20" viewBox="0 0 20 20" fill="none" xmlns="http://www.w3.org/2000/svg">
<g clip-path="url(#clip0_5864_2901)">
<path d="M17.8859 1.42859H2.11443C1.73514 1.42859 1.42871 1.73502 1.42871 2.1143V17.8857C1.42871 18.265 1.73514 18.5714 2.11443 18.5714H17.8859C18.2651 18.5714 18.5716 18.265 18.5716 17.8857V2.1143C18.5716 1.73502 18.2651 1.42859 17.8859 1.42859ZM6.51371 16.0364H3.97014V7.85502H6.51371V16.0364ZM5.243 6.73645C4.95141 6.73645 4.66637 6.64998 4.42393 6.48798C4.18148 6.32599 3.99252 6.09574 3.88093 5.82634C3.76935 5.55695 3.74015 5.26052 3.79704 4.97454C3.85392 4.68856 3.99434 4.42587 4.20052 4.21968C4.4067 4.0135 4.66939 3.87309 4.95538 3.8162C5.24136 3.75932 5.53779 3.78851 5.80718 3.9001C6.07657 4.01168 6.30682 4.20065 6.46882 4.44309C6.63082 4.68554 6.71728 4.97057 6.71728 5.26216C6.71514 6.07645 6.05514 6.73645 5.243 6.73645ZM16.0366 16.0364H13.4951V12.0572C13.4951 11.1079 13.478 9.88859 12.173 9.88859C10.8509 9.88859 10.6473 10.9214 10.6473 11.9886V16.0364H8.108V7.85502H10.5466V8.97359H10.5809C10.9194 8.33073 11.7487 7.65145 12.9873 7.65145C15.563 7.65145 16.0366 9.34645 16.0366 11.5493V16.0364Z" fill="#E8EEEF"/>
</g>
<defs>
<clipPath id="clip0_5864_2901">
<rect width="17.1429" height="17.1429" fill="white" transform="translate(1.42871 1.42859)"/>
</clipPath>
</defs>
</svg>
