<svg width="36" height="36" viewBox="0 0 36 36" fill="none" xmlns="http://www.w3.org/2000/svg">
<rect width="36" height="36" rx="8" fill="#D1CD4B" fill-opacity="0.1"/>
<path d="M25.7593 10.2406C25.6021 10.0835 25.4059 9.97116 25.1909 9.91514C24.9758 9.85911 24.7497 9.86142 24.5359 9.92184H24.5242L9.52884 14.4718C9.2854 14.542 9.06903 14.6845 8.90839 14.8804C8.74775 15.0763 8.65044 15.3164 8.62934 15.5689C8.60825 15.8213 8.66436 16.0743 8.79026 16.2941C8.91616 16.514 9.10589 16.6904 9.33431 16.8L15.9687 20.0312L19.1952 26.6617C19.2956 26.8758 19.4552 27.0568 19.6551 27.1832C19.855 27.3096 20.0869 27.3761 20.3234 27.375C20.3593 27.375 20.3952 27.3734 20.4312 27.3703C20.6835 27.3498 20.9234 27.2528 21.1189 27.092C21.3144 26.9313 21.4561 26.7146 21.5249 26.4711L26.0718 11.4757C26.0718 11.4718 26.0718 11.4679 26.0718 11.464C26.133 11.2507 26.1363 11.025 26.0814 10.8099C26.0265 10.5949 25.9153 10.3984 25.7593 10.2406ZM20.3304 26.1132L20.3265 26.1242V26.1187L17.1968 19.689L20.9468 15.939C21.0591 15.8209 21.1207 15.6635 21.1186 15.5005C21.1166 15.3376 21.0509 15.1819 20.9356 15.0666C20.8204 14.9514 20.6647 14.8857 20.5017 14.8836C20.3387 14.8815 20.1814 14.9432 20.0632 15.0554L16.3132 18.8054L9.88119 15.6757H9.87572H9.88665L24.8749 11.125L20.3304 26.1132Z" fill="#D1CD4B"/>
</svg>
