<svg width="28" height="28" viewBox="0 0 28 28" fill="none" xmlns="http://www.w3.org/2000/svg">
<path d="M25.7578 23.7136C23.2903 22.5104 21.875 19.9314 21.875 16.6261V14.7361C21.876 14.3854 21.7711 14.0427 21.5743 13.7525C21.3774 13.4624 21.0976 13.2383 20.7714 13.1097L18.0469 12.0312C17.8325 11.9455 17.6608 11.7785 17.569 11.5667C17.4772 11.3548 17.4729 11.1153 17.5569 10.9003L19.8888 5.10341C20.047 4.72294 20.1269 4.31444 20.1235 3.90238C20.1202 3.49032 20.0337 3.08318 19.8693 2.70533C19.7049 2.32747 19.4659 1.98669 19.1667 1.70338C18.8674 1.42007 18.5141 1.20006 18.1278 1.05653C17.3755 0.780871 16.5453 0.809472 15.8137 1.13626C15.0821 1.46305 14.5068 2.06226 14.21 2.80653C14.2096 2.8109 14.2096 2.8153 14.21 2.81966L11.911 8.6406C11.8255 8.85595 11.658 9.02859 11.4454 9.12066C11.2328 9.21272 10.9923 9.21669 10.7767 9.13169L7.99643 7.99966C7.67587 7.86976 7.32384 7.83847 6.98539 7.90978C6.64695 7.9811 6.33748 8.15178 6.09659 8.39997C3.79315 10.7679 2.62502 13.5351 2.62502 16.625C2.61897 19.7869 3.84179 22.8275 6.03534 25.1048C6.11752 25.1907 6.21635 25.259 6.3258 25.3055C6.43524 25.3519 6.55301 25.3756 6.6719 25.375H25.375C25.5728 25.3748 25.7647 25.3076 25.9194 25.1844C26.0741 25.0612 26.1824 24.8892 26.2268 24.6964C26.2712 24.5037 26.2491 24.3016 26.1639 24.1231C26.0787 23.9447 25.9356 23.8003 25.7578 23.7136ZM7.34346 9.62497L10.1227 10.7515C10.4435 10.8799 10.7865 10.9436 11.132 10.9391C11.4775 10.9346 11.8187 10.8619 12.136 10.7253C12.4534 10.5886 12.7406 10.3906 12.9813 10.1427C13.2219 9.89473 13.4113 9.60172 13.5385 9.28044L15.8353 3.48357C16.1153 2.81528 16.8711 2.46966 17.523 2.71794C17.6892 2.7796 17.8412 2.87429 17.9698 2.99629C18.0984 3.1183 18.2009 3.26508 18.2712 3.4278C18.3416 3.59052 18.3782 3.7658 18.3789 3.94306C18.3797 4.12032 18.3445 4.2959 18.2755 4.45919L15.9349 10.255C15.6786 10.9015 15.6894 11.6232 15.9648 12.2618C16.2402 12.9004 16.7577 13.4036 17.4038 13.6609L20.125 14.7361V16.625C20.125 16.6611 20.125 16.6972 20.125 16.7344L6.09987 11.1245C6.47273 10.5915 6.88866 10.09 7.34346 9.62497ZM12.5935 23.625C11.2907 22.3753 10.3678 20.7828 9.93127 19.0312C9.87043 18.8097 9.7249 18.621 9.5261 18.5058C9.3273 18.3906 9.09118 18.3583 8.86873 18.4157C8.64629 18.4732 8.45535 18.6158 8.33717 18.8128C8.21898 19.0098 8.18302 19.2454 8.23705 19.4687C8.6187 20.9756 9.30183 22.3895 10.2452 23.625H7.04815C5.32241 21.7023 4.37009 19.2085 4.37502 16.625C4.36432 15.2561 4.65287 13.9014 5.22049 12.6558L20.2924 18.6845C20.6205 20.6533 21.4474 22.3464 22.6866 23.6239L12.5935 23.625Z" fill="#023A4A"/>
</svg>
