<svg width="29" height="28" viewBox="0 0 29 28" fill="none" xmlns="http://www.w3.org/2000/svg">
<path d="M10.125 11.375H4.875C4.64294 11.375 4.42038 11.2828 4.25628 11.1187C4.09219 10.9546 4 10.7321 4 10.5V5.25C4 5.01793 4.09219 4.79537 4.25628 4.63128C4.42038 4.46719 4.64294 4.375 4.875 4.375C5.10706 4.375 5.32962 4.46719 5.49372 4.63128C5.65781 4.79537 5.75 5.01793 5.75 5.25V8.38797L7.35016 6.78781C9.30164 4.82651 11.952 3.72026 14.7188 3.71219H14.7767C17.5199 3.70512 20.1555 4.77907 22.1125 6.7014C22.2723 6.86488 22.3618 7.08439 22.3618 7.31299C22.3618 7.54159 22.2723 7.76111 22.1126 7.9246C21.9528 8.08809 21.7354 8.18256 21.5068 8.18781C21.2783 8.19305 21.0568 8.10865 20.8897 7.95265C19.2584 6.35149 17.0625 5.45683 14.7767 5.46219H14.7275C12.4221 5.46928 10.2137 6.39095 8.58719 8.02484L6.98703 9.625H10.125C10.3571 9.625 10.5796 9.71719 10.7437 9.88128C10.9078 10.0454 11 10.2679 11 10.5C11 10.7321 10.9078 10.9546 10.7437 11.1187C10.5796 11.2828 10.3571 11.375 10.125 11.375ZM24.125 16.625H18.875C18.6429 16.625 18.4204 16.7172 18.2563 16.8813C18.0922 17.0454 18 17.2679 18 17.5C18 17.7321 18.0922 17.9546 18.2563 18.1187C18.4204 18.2828 18.6429 18.375 18.875 18.375H22.013L20.4128 19.9752C18.7866 21.6088 16.5786 22.5304 14.2736 22.5378H14.2244C11.9386 22.5432 9.74264 21.6485 8.11141 20.0473C8.02991 19.964 7.93257 19.8977 7.82511 19.8525C7.71764 19.8073 7.60223 19.784 7.48564 19.784C7.36904 19.784 7.25363 19.8073 7.14617 19.8525C7.03872 19.8978 6.94138 19.964 6.85989 20.0474C6.7784 20.1308 6.7144 20.2296 6.67164 20.3381C6.62889 20.4466 6.60824 20.5625 6.61091 20.679C6.61359 20.7956 6.63953 20.9105 6.68721 21.0168C6.7349 21.1232 6.80337 21.219 6.88859 21.2986C8.8456 23.2209 11.4812 24.2949 14.2244 24.2878H14.2812C17.0476 24.2794 19.6975 23.1732 21.6488 21.2122L23.25 19.612V22.75C23.25 22.9821 23.3422 23.2046 23.5063 23.3687C23.6704 23.5328 23.8929 23.625 24.125 23.625C24.3571 23.625 24.5796 23.5328 24.7437 23.3687C24.9078 23.2046 25 22.9821 25 22.75V17.5C25 17.2679 24.9078 17.0454 24.7437 16.8813C24.5796 16.7172 24.3571 16.625 24.125 16.625Z" fill="#D1CD4B"/>
</svg>
