<svg width="36" height="36" viewBox="0 0 36 36" fill="none" xmlns="http://www.w3.org/2000/svg">
<rect width="36" height="36" rx="8" fill="#D1CD4B" fill-opacity="0.1"/>
<path d="M18 9.875C13.7945 9.875 10.5 11.7969 10.5 14.25V21.75C10.5 24.2031 13.7945 26.125 18 26.125C22.2055 26.125 25.5 24.2031 25.5 21.75V14.25C25.5 11.7969 22.2055 9.875 18 9.875ZM24.25 18C24.25 18.7516 23.6344 19.518 22.5617 20.1031C21.3539 20.7617 19.7336 21.125 18 21.125C16.2664 21.125 14.6461 20.7617 13.4383 20.1031C12.3656 19.518 11.75 18.7516 11.75 18V16.7C13.0828 17.8719 15.3617 18.625 18 18.625C20.6383 18.625 22.9172 17.8688 24.25 16.7V18ZM13.4383 12.1469C14.6461 11.4883 16.2664 11.125 18 11.125C19.7336 11.125 21.3539 11.4883 22.5617 12.1469C23.6344 12.732 24.25 13.4984 24.25 14.25C24.25 15.0016 23.6344 15.768 22.5617 16.3531C21.3539 17.0117 19.7336 17.375 18 17.375C16.2664 17.375 14.6461 17.0117 13.4383 16.3531C12.3656 15.768 11.75 15.0016 11.75 14.25C11.75 13.4984 12.3656 12.732 13.4383 12.1469ZM22.5617 23.8531C21.3539 24.5117 19.7336 24.875 18 24.875C16.2664 24.875 14.6461 24.5117 13.4383 23.8531C12.3656 23.268 11.75 22.5016 11.75 21.75V20.45C13.0828 21.6219 15.3617 22.375 18 22.375C20.6383 22.375 22.9172 21.6187 24.25 20.45V21.75C24.25 22.5016 23.6344 23.268 22.5617 23.8531Z" fill="#D1CD4B"/>
</svg>
