<svg width="29" height="28" viewBox="0 0 29 28" fill="none" xmlns="http://www.w3.org/2000/svg">
<path d="M23.25 5.25H5.75C5.05381 5.25 4.38613 5.52656 3.89384 6.01884C3.40156 6.51113 3.125 7.17881 3.125 7.875V20.125C3.125 20.8212 3.40156 21.4889 3.89384 21.9812C4.38613 22.4734 5.05381 22.75 5.75 22.75H23.25C23.9462 22.75 24.6139 22.4734 25.1062 21.9812C25.5984 21.4889 25.875 20.8212 25.875 20.125V7.875C25.875 7.17881 25.5984 6.51113 25.1062 6.01884C24.6139 5.52656 23.9462 5.25 23.25 5.25ZM4.875 10.5H24.125V12.25H18C17.7679 12.25 17.5454 12.3422 17.3813 12.5063C17.2172 12.6704 17.125 12.8929 17.125 13.125C17.125 13.8212 16.8484 14.4889 16.3562 14.9812C15.8639 15.4734 15.1962 15.75 14.5 15.75C13.8038 15.75 13.1361 15.4734 12.6438 14.9812C12.1516 14.4889 11.875 13.8212 11.875 13.125C11.875 12.8929 11.7828 12.6704 11.6187 12.5063C11.4546 12.3422 11.2321 12.25 11 12.25H4.875V10.5ZM5.75 7H23.25C23.4821 7 23.7046 7.09219 23.8687 7.25628C24.0328 7.42038 24.125 7.64294 24.125 7.875V8.75H4.875V7.875C4.875 7.64294 4.96719 7.42038 5.13128 7.25628C5.29538 7.09219 5.51794 7 5.75 7ZM23.25 21H5.75C5.51794 21 5.29538 20.9078 5.13128 20.7437C4.96719 20.5796 4.875 20.3571 4.875 20.125V14H10.2125C10.4133 14.989 10.9499 15.8782 11.7313 16.5168C12.5127 17.1555 13.4908 17.5044 14.5 17.5044C15.5092 17.5044 16.4873 17.1555 17.2687 16.5168C18.0501 15.8782 18.5867 14.989 18.7875 14H24.125V20.125C24.125 20.3571 24.0328 20.5796 23.8687 20.7437C23.7046 20.9078 23.4821 21 23.25 21Z" fill="#023A4A"/>
</svg>
