<svg width="28" height="28" viewBox="0 0 28 28" fill="none" xmlns="http://www.w3.org/2000/svg">
<path d="M25.2262 2.7737C24.9011 2.44861 24.5153 2.19073 24.0906 2.01479C23.6659 1.83885 23.2107 1.74829 22.751 1.74829C22.2913 1.74829 21.8361 1.83885 21.4114 2.01479C20.9867 2.19073 20.6009 2.44861 20.2758 2.7737C20.2605 2.78901 20.2452 2.80542 20.2299 2.82292L14.3882 9.64901L13.2343 8.49183C12.9905 8.24793 12.7011 8.05445 12.3825 7.92244C12.0639 7.79044 11.7225 7.7225 11.3776 7.7225C11.0328 7.7225 10.6913 7.79044 10.3728 7.92244C10.0542 8.05445 9.76477 8.24793 9.521 8.49183L1.13303 16.8809C0.969062 17.045 0.876953 17.2674 0.876953 17.4994C0.876953 17.7314 0.969062 17.9538 1.13303 18.1179L9.88303 26.8679C10.0471 27.0319 10.2696 27.124 10.5015 27.124C10.7335 27.124 10.956 27.0319 11.1201 26.8679L19.508 18.4843C19.7519 18.2406 19.9454 17.9511 20.0774 17.6325C20.2094 17.314 20.2774 16.9725 20.2774 16.6277C20.2774 16.2828 20.2094 15.9414 20.0774 15.6228C19.9454 15.3043 19.7519 15.0148 19.508 14.771L18.3508 13.615L25.1769 7.76557C25.1933 7.75026 25.2108 7.73495 25.2262 7.71854C25.881 7.06237 26.2488 6.17318 26.2488 5.24612C26.2488 4.31907 25.881 3.42988 25.2262 2.7737ZM10.4999 25.0129L8.67553 23.1875L11.119 20.7429C11.2761 20.5775 11.3625 20.3572 11.3595 20.129C11.3566 19.9009 11.2647 19.6829 11.1033 19.5215C10.942 19.3602 10.724 19.2682 10.4958 19.2653C10.2676 19.2624 10.0474 19.3487 9.88194 19.5059L7.43741 21.9493L6.05053 20.5625L8.49397 18.1179C8.65114 17.9525 8.73746 17.7322 8.73454 17.504C8.73162 17.2759 8.63968 17.0579 8.47833 16.8965C8.31698 16.7352 8.09898 16.6432 7.87082 16.6403C7.64265 16.6374 7.42237 16.7237 7.25694 16.8809L4.81241 19.3243L2.98694 17.5L7.87491 12.612L15.3879 20.125L10.4999 25.0129ZM24.0099 6.46401L16.4947 12.8964C16.403 12.9747 16.3284 13.0713 16.2758 13.1799C16.2231 13.2885 16.1935 13.4068 16.1888 13.5274C16.184 13.648 16.2043 13.7683 16.2483 13.8806C16.2923 13.993 16.3591 14.0951 16.4444 14.1804L18.2655 16.0059C18.4295 16.17 18.5216 16.3924 18.5216 16.6244C18.5216 16.8564 18.4295 17.0788 18.2655 17.2429L16.6249 18.8835L9.11303 11.375L10.7537 9.73432C10.9177 9.57035 11.1402 9.47825 11.3722 9.47825C11.6041 9.47825 11.8266 9.57035 11.9907 9.73432L13.8162 11.5598C13.9015 11.6451 14.0036 11.7119 14.1159 11.7559C14.2283 11.7999 14.3486 11.8202 14.4692 11.8155C14.5898 11.8107 14.7081 11.7811 14.8167 11.7285C14.9253 11.6758 15.0218 11.6012 15.1002 11.5095L21.5358 3.98995C21.8667 3.67562 22.3073 3.50296 22.7636 3.50881C23.2199 3.51465 23.6559 3.69852 23.9786 4.02123C24.3013 4.34393 24.4852 4.77993 24.4911 5.23626C24.4969 5.69259 24.3242 6.13315 24.0099 6.46401Z" fill="#023A4A"/>
</svg>
