<svg width="28" height="29" viewBox="0 0 28 29" fill="none" xmlns="http://www.w3.org/2000/svg">
<path d="M24.5 14.2C24.5 14.432 24.4078 14.6546 24.2437 14.8187C24.0796 14.9828 23.8571 15.075 23.625 15.075H14.875V23.825C14.875 24.057 14.7828 24.2796 14.6187 24.4437C14.4546 24.6078 14.2321 24.7 14 24.7C13.7679 24.7 13.5454 24.6078 13.3813 24.4437C13.2172 24.2796 13.125 24.057 13.125 23.825V15.075H4.375C4.14294 15.075 3.92038 14.9828 3.75628 14.8187C3.59219 14.6546 3.5 14.432 3.5 14.2C3.5 13.9679 3.59219 13.7453 3.75628 13.5812C3.92038 13.4171 4.14294 13.325 4.375 13.325H13.125V4.57495C13.125 4.34289 13.2172 4.12033 13.3813 3.95623C13.5454 3.79214 13.7679 3.69995 14 3.69995C14.2321 3.69995 14.4546 3.79214 14.6187 3.95623C14.7828 4.12033 14.875 4.34289 14.875 4.57495V13.325H23.625C23.8571 13.325 24.0796 13.4171 24.2437 13.5812C24.4078 13.7453 24.5 13.9679 24.5 14.2Z" fill="#D1CD4B"/>
</svg>
