<svg width="36" height="36" viewBox="0 0 36 36" fill="none" xmlns="http://www.w3.org/2000/svg">
<rect width="36" height="36" rx="8" fill="#D1CD4B" fill-opacity="0.1"/>
<path d="M25.5 11.75H10.5C10.3342 11.75 10.1753 11.8158 10.0581 11.9331C9.94085 12.0503 9.875 12.2092 9.875 12.375V23C9.875 23.3315 10.0067 23.6495 10.2411 23.8839C10.4755 24.1183 10.7935 24.25 11.125 24.25H24.875C25.2065 24.25 25.5245 24.1183 25.7589 23.8839C25.9933 23.6495 26.125 23.3315 26.125 23V12.375C26.125 12.2092 26.0592 12.0503 25.9419 11.9331C25.8247 11.8158 25.6658 11.75 25.5 11.75ZM11.125 16.75H14.25V19.25H11.125V16.75ZM15.5 16.75H24.875V19.25H15.5V16.75ZM24.875 13V15.5H11.125V13H24.875ZM11.125 20.5H14.25V23H11.125V20.5ZM24.875 23H15.5V20.5H24.875V23Z" fill="#D1CD4B"/>
</svg>
