<svg width="36" height="36" viewBox="0 0 36 36" fill="none" xmlns="http://www.w3.org/2000/svg">
<rect width="36" height="36" rx="8" fill="#D1CD4B" fill-opacity="0.1"/>
<path d="M27.6688 14.9485L18.2938 9.94846C18.2034 9.90031 18.1025 9.87512 18 9.87512C17.8976 9.87512 17.7967 9.90031 17.7063 9.94846L8.3313 14.9485C8.2313 15.0017 8.14767 15.0812 8.08936 15.1784C8.03105 15.2755 8.00024 15.3867 8.00024 15.5C8.00024 15.6133 8.03105 15.7245 8.08936 15.8217C8.14767 15.9188 8.2313 15.9983 8.3313 16.0516L10.5 17.2086V20.9914C10.4994 21.2984 10.6124 21.5948 10.8172 21.8235C11.8407 22.9633 14.1336 24.875 18 24.875C19.282 24.8856 20.5544 24.6534 21.75 24.1906V26.75C21.75 26.9158 21.8159 27.0748 21.9331 27.192C22.0503 27.3092 22.2093 27.375 22.375 27.375C22.5408 27.375 22.6998 27.3092 22.817 27.192C22.9342 27.0748 23 26.9158 23 26.75V23.5867C23.8151 23.1163 24.5515 22.5213 25.1829 21.8235C25.3877 21.5948 25.5007 21.2984 25.5 20.9914V17.2086L27.6688 16.0516C27.7688 15.9983 27.8524 15.9188 27.9107 15.8217C27.969 15.7245 27.9999 15.6133 27.9999 15.5C27.9999 15.3867 27.969 15.2755 27.9107 15.1784C27.8524 15.0812 27.7688 15.0017 27.6688 14.9485ZM18 23.625C14.6196 23.625 12.6313 21.9735 11.75 20.9914V17.875L17.7063 21.0516C17.7967 21.0997 17.8976 21.1249 18 21.1249C18.1025 21.1249 18.2034 21.0997 18.2938 21.0516L21.75 19.2086V22.8289C20.7657 23.2883 19.525 23.625 18 23.625ZM24.25 20.9883C23.8754 21.404 23.4562 21.7774 23 22.1016V18.5414L24.25 17.875V20.9883ZM22.6875 17.2922L22.6704 17.282L18.2954 14.9485C18.1494 14.8739 17.98 14.8597 17.8236 14.9088C17.6673 14.958 17.5365 15.0666 17.4594 15.2113C17.3824 15.3559 17.3652 15.5251 17.4117 15.6823C17.4582 15.8394 17.5645 15.9721 17.7079 16.0516L21.3594 18L18 19.7914L9.95317 15.5L18 11.2086L26.0469 15.5L22.6875 17.2922Z" fill="#D1CD4B"/>
</svg>
