<svg width="36" height="36" viewBox="0 0 36 36" fill="none" xmlns="http://www.w3.org/2000/svg">
<rect width="36" height="36" rx="8" fill="#D1CD4B" fill-opacity="0.1"/>
<path d="M24.25 11.75H11.75C11.2527 11.75 10.7758 11.9475 10.4242 12.2992C10.0725 12.6508 9.875 13.1277 9.875 13.625V22.375C9.875 22.8723 10.0725 23.3492 10.4242 23.7008C10.7758 24.0525 11.2527 24.25 11.75 24.25H24.25C24.7473 24.25 25.2242 24.0525 25.5758 23.7008C25.9275 23.3492 26.125 22.8723 26.125 22.375V13.625C26.125 13.1277 25.9275 12.6508 25.5758 12.2992C25.2242 11.9475 24.7473 11.75 24.25 11.75ZM11.125 15.5H24.875V16.75H20.5C20.3342 16.75 20.1753 16.8158 20.0581 16.9331C19.9408 17.0503 19.875 17.2092 19.875 17.375C19.875 17.8723 19.6775 18.3492 19.3258 18.7008C18.9742 19.0525 18.4973 19.25 18 19.25C17.5027 19.25 17.0258 19.0525 16.6742 18.7008C16.3225 18.3492 16.125 17.8723 16.125 17.375C16.125 17.2092 16.0592 17.0503 15.9419 16.9331C15.8247 16.8158 15.6658 16.75 15.5 16.75H11.125V15.5ZM11.75 13H24.25C24.4158 13 24.5747 13.0658 24.6919 13.1831C24.8092 13.3003 24.875 13.4592 24.875 13.625V14.25H11.125V13.625C11.125 13.4592 11.1908 13.3003 11.3081 13.1831C11.4253 13.0658 11.5842 13 11.75 13ZM24.25 23H11.75C11.5842 23 11.4253 22.9342 11.3081 22.8169C11.1908 22.6997 11.125 22.5408 11.125 22.375V18H14.9375C15.0809 18.7064 15.4642 19.3415 16.0223 19.7977C16.5805 20.2539 17.2792 20.5031 18 20.5031C18.7208 20.5031 19.4195 20.2539 19.9777 19.7977C20.5358 19.3415 20.9191 18.7064 21.0625 18H24.875V22.375C24.875 22.5408 24.8092 22.6997 24.6919 22.8169C24.5747 22.9342 24.4158 23 24.25 23Z" fill="#D1CD4B"/>
</svg>
