<svg width="28" height="28" viewBox="0 0 28 28" fill="none" xmlns="http://www.w3.org/2000/svg">
<path d="M13.9995 2.625C13.7675 2.625 13.5449 2.71719 13.3808 2.88128C13.2167 3.04538 13.1245 3.26794 13.1245 3.5V9.625C13.1245 9.85706 13.2167 10.0796 13.3808 10.2437C13.5449 10.4078 13.7675 10.5 13.9995 10.5C14.77 10.5002 15.5188 10.7545 16.1299 11.2237C16.7411 11.6928 17.1804 12.3505 17.3796 13.0947C17.5789 13.8389 17.5271 14.6281 17.2321 15.3398C16.9372 16.0516 16.4157 16.6461 15.7484 17.0313C15.0811 17.4164 14.3054 17.5706 13.5416 17.47C12.7778 17.3694 12.0685 17.0195 11.5237 16.4747C10.979 15.9299 10.6292 15.2206 10.5287 14.4567C10.4281 13.6929 10.5824 12.9172 10.9676 12.25C11.0251 12.1505 11.0624 12.0406 11.0774 11.9266C11.0924 11.8127 11.0848 11.6969 11.0551 11.5859C11.0253 11.4749 10.974 11.3708 10.904 11.2796C10.834 11.1885 10.7467 11.112 10.6472 11.0545L5.34249 7.99203C5.24296 7.93456 5.13308 7.89725 5.01913 7.88225C4.90518 7.86725 4.78938 7.87485 4.67837 7.90461C4.56735 7.93437 4.46329 7.98571 4.37212 8.0557C4.28095 8.12568 4.20446 8.21295 4.14702 8.3125C2.89504 10.481 2.39356 13.002 2.72035 15.4846C3.04715 17.9671 4.18395 20.2725 5.95447 22.0431C7.72498 23.8137 10.0303 24.9507 12.5128 25.2776C14.9953 25.6046 17.5164 25.1032 19.6849 23.8514C21.8535 22.5996 23.5484 20.6672 24.5068 18.3539C25.4653 16.0406 25.6336 13.4757 24.9858 11.057C24.3379 8.63829 22.9101 6.50092 20.9237 4.97638C18.9374 3.45184 16.5035 2.62532 13.9995 2.625ZM5.25937 9.96406L9.07765 12.1691C8.86037 12.755 8.74926 13.375 8.74952 14C8.74952 14.1673 8.75827 14.3281 8.77359 14.4944L4.51452 15.6406C4.18238 13.7167 4.44212 11.7372 5.25937 9.96406ZM4.96734 17.3261L9.23296 16.1842C9.5896 16.9616 10.1304 17.6403 10.8085 18.1616C11.4866 18.6828 12.2816 19.0309 13.1245 19.1756V23.5845C11.3131 23.4166 9.58604 22.7399 8.1427 21.6326C6.69936 20.5252 5.59856 19.0323 4.96734 17.3261ZM14.8745 23.5845V19.1756C16.0974 18.9684 17.2073 18.3349 18.0077 17.3874C18.8081 16.4399 19.2472 15.2397 19.2472 13.9995C19.2472 12.7592 18.8081 11.559 18.0077 10.6115C17.2073 9.66405 16.0974 9.03055 14.8745 8.82328V4.41438C17.2657 4.63284 19.4888 5.73715 21.1076 7.51055C22.7263 9.28395 23.6238 11.5983 23.6238 13.9995C23.6238 16.4006 22.7263 18.715 21.1076 20.4884C19.4888 22.2618 17.2657 23.3661 14.8745 23.5845Z" fill="#023A4A"/>
</svg>
