<svg width="36" height="36" viewBox="0 0 36 36" fill="none" xmlns="http://www.w3.org/2000/svg">
<rect width="36" height="36" rx="8" fill="#D1CD4B" fill-opacity="0.1"/>
<path d="M18 9.875C16.393 9.875 14.8221 10.3515 13.486 11.2443C12.1498 12.1371 11.1084 13.406 10.4935 14.8907C9.87852 16.3753 9.71762 18.009 10.0311 19.5851C10.3446 21.1612 11.1185 22.6089 12.2548 23.7452C13.3911 24.8815 14.8388 25.6554 16.4149 25.9689C17.991 26.2824 19.6247 26.1215 21.1093 25.5065C22.594 24.8916 23.8629 23.8502 24.7557 22.514C25.6485 21.1779 26.125 19.607 26.125 18C26.1227 15.8458 25.266 13.7805 23.7427 12.2573C22.2195 10.734 20.1542 9.87727 18 9.875ZM18 24.875C16.6403 24.875 15.311 24.4718 14.1805 23.7164C13.0499 22.9609 12.1687 21.8872 11.6483 20.6309C11.128 19.3747 10.9918 17.9924 11.2571 16.6588C11.5224 15.3251 12.1772 14.1001 13.1386 13.1386C14.1001 12.1772 15.3251 11.5224 16.6588 11.2571C17.9924 10.9918 19.3747 11.128 20.631 11.6483C21.8872 12.1687 22.9609 13.0499 23.7164 14.1805C24.4718 15.311 24.875 16.6403 24.875 18C24.8729 19.8227 24.1479 21.5702 22.8591 22.8591C21.5702 24.1479 19.8227 24.8729 18 24.875ZM21.125 19.5625C21.125 20.1427 20.8945 20.6991 20.4843 21.1093C20.0741 21.5195 19.5177 21.75 18.9375 21.75H18.625V22.375C18.625 22.5408 18.5592 22.6997 18.4419 22.8169C18.3247 22.9342 18.1658 23 18 23C17.8342 23 17.6753 22.9342 17.5581 22.8169C17.4409 22.6997 17.375 22.5408 17.375 22.375V21.75H16.125C15.9592 21.75 15.8003 21.6842 15.6831 21.5669C15.5659 21.4497 15.5 21.2908 15.5 21.125C15.5 20.9592 15.5659 20.8003 15.6831 20.6831C15.8003 20.5658 15.9592 20.5 16.125 20.5H18.9375C19.1861 20.5 19.4246 20.4012 19.6004 20.2254C19.7762 20.0496 19.875 19.8111 19.875 19.5625C19.875 19.3139 19.7762 19.0754 19.6004 18.8996C19.4246 18.7238 19.1861 18.625 18.9375 18.625H17.0625C16.4823 18.625 15.9259 18.3945 15.5157 17.9843C15.1055 17.5741 14.875 17.0177 14.875 16.4375C14.875 15.8573 15.1055 15.3009 15.5157 14.8907C15.9259 14.4805 16.4823 14.25 17.0625 14.25H17.375V13.625C17.375 13.4592 17.4409 13.3003 17.5581 13.1831C17.6753 13.0658 17.8342 13 18 13C18.1658 13 18.3247 13.0658 18.4419 13.1831C18.5592 13.3003 18.625 13.4592 18.625 13.625V14.25H19.875C20.0408 14.25 20.1997 14.3158 20.3169 14.4331C20.4342 14.5503 20.5 14.7092 20.5 14.875C20.5 15.0408 20.4342 15.1997 20.3169 15.3169C20.1997 15.4342 20.0408 15.5 19.875 15.5H17.0625C16.8139 15.5 16.5754 15.5988 16.3996 15.7746C16.2238 15.9504 16.125 16.1889 16.125 16.4375C16.125 16.6861 16.2238 16.9246 16.3996 17.1004C16.5754 17.2762 16.8139 17.375 17.0625 17.375H18.9375C19.5177 17.375 20.0741 17.6055 20.4843 18.0157C20.8945 18.4259 21.125 18.9823 21.125 19.5625Z" fill="#D1CD4B"/>
</svg>
