<svg width="29" height="28" viewBox="0 0 29 28" fill="none" xmlns="http://www.w3.org/2000/svg">
<path d="M25.2034 11.2459C24.7911 10.815 24.3645 10.3709 24.2038 9.98047C24.055 9.62281 24.0462 9.03 24.0375 8.45578C24.0211 7.38828 24.0036 6.17859 23.1625 5.3375C22.3214 4.49641 21.1117 4.47891 20.0442 4.4625C19.47 4.45375 18.8772 4.445 18.5195 4.29625C18.1302 4.13547 17.685 3.70891 17.2541 3.29656C16.4994 2.57141 15.6419 1.75 14.5 1.75C13.3581 1.75 12.5017 2.57141 11.7459 3.29656C11.315 3.70891 10.8709 4.13547 10.4805 4.29625C10.125 4.445 9.53 4.45375 8.95578 4.4625C7.88828 4.47891 6.67859 4.49641 5.8375 5.3375C4.99641 6.17859 4.98438 7.38828 4.9625 8.45578C4.95375 9.03 4.945 9.62281 4.79625 9.98047C4.63547 10.3698 4.20891 10.815 3.79656 11.2459C3.07141 12.0006 2.25 12.8581 2.25 14C2.25 15.1419 3.07141 15.9983 3.79656 16.7541C4.20891 17.185 4.63547 17.6291 4.79625 18.0195C4.945 18.3772 4.95375 18.97 4.9625 19.5442C4.97891 20.6117 4.99641 21.8214 5.8375 22.6625C6.67859 23.5036 7.88828 23.5211 8.95578 23.5375C9.53 23.5462 10.1228 23.555 10.4805 23.7038C10.8698 23.8645 11.315 24.2911 11.7459 24.7034C12.5006 25.4286 13.3581 26.25 14.5 26.25C15.6419 26.25 16.4983 25.4286 17.2541 24.7034C17.685 24.2911 18.1291 23.8645 18.5195 23.7038C18.8772 23.555 19.47 23.5462 20.0442 23.5375C21.1117 23.5211 22.3214 23.5036 23.1625 22.6625C24.0036 21.8214 24.0211 20.6117 24.0375 19.5442C24.0462 18.97 24.055 18.3772 24.2038 18.0195C24.3645 17.6302 24.7911 17.185 25.2034 16.7541C25.9286 15.9994 26.75 15.1419 26.75 14C26.75 12.8581 25.9286 12.0017 25.2034 11.2459ZM23.9402 15.5433C23.4163 16.0902 22.8737 16.6556 22.5861 17.3502C22.3105 18.0173 22.2984 18.7797 22.2875 19.518C22.2766 20.2836 22.2645 21.0853 21.9244 21.4244C21.5842 21.7634 20.788 21.7766 20.018 21.7875C19.2797 21.7984 18.5173 21.8105 17.8502 22.0861C17.1556 22.3737 16.5902 22.9163 16.0433 23.4402C15.4964 23.9641 14.9375 24.5 14.5 24.5C14.0625 24.5 13.4992 23.9619 12.9567 23.4402C12.4142 22.9184 11.8444 22.3737 11.1498 22.0861C10.4827 21.8105 9.72031 21.7984 8.98203 21.7875C8.21641 21.7766 7.41469 21.7645 7.07562 21.4244C6.73656 21.0842 6.72344 20.288 6.7125 19.518C6.70156 18.7797 6.68953 18.0173 6.41391 17.3502C6.12625 16.6556 5.58375 16.0902 5.05984 15.5433C4.53594 14.9964 4 14.4375 4 14C4 13.5625 4.53812 12.9992 5.05984 12.4567C5.58156 11.9142 6.12625 11.3444 6.41391 10.6498C6.68953 9.98266 6.70156 9.22031 6.7125 8.48203C6.72344 7.71641 6.73547 6.91469 7.07562 6.57562C7.41578 6.23656 8.21203 6.22344 8.98203 6.2125C9.72031 6.20156 10.4827 6.18953 11.1498 5.91391C11.8444 5.62625 12.4098 5.08375 12.9567 4.55984C13.5036 4.03594 14.0625 3.5 14.5 3.5C14.9375 3.5 15.5008 4.03812 16.0433 4.55984C16.5858 5.08156 17.1556 5.62625 17.8502 5.91391C18.5173 6.18953 19.2797 6.20156 20.018 6.2125C20.7836 6.22344 21.5853 6.23547 21.9244 6.57562C22.2634 6.91578 22.2766 7.71203 22.2875 8.48203C22.2984 9.22031 22.3105 9.98266 22.5861 10.6498C22.8737 11.3444 23.4163 11.9098 23.9402 12.4567C24.4641 13.0036 25 13.5625 25 14C25 14.4375 24.4619 15.0008 23.9402 15.5433ZM19.4941 10.7559C19.5754 10.8372 19.64 10.9337 19.684 11.0399C19.728 11.1462 19.7507 11.26 19.7507 11.375C19.7507 11.49 19.728 11.6038 19.684 11.7101C19.64 11.8163 19.5754 11.9128 19.4941 11.9941L13.3691 18.1191C13.2878 18.2004 13.1913 18.265 13.0851 18.309C12.9788 18.353 12.865 18.3757 12.75 18.3757C12.635 18.3757 12.5212 18.353 12.4149 18.309C12.3087 18.265 12.2122 18.2004 12.1309 18.1191L9.50594 15.4941C9.34175 15.3299 9.24951 15.1072 9.24951 14.875C9.24951 14.6428 9.34175 14.4201 9.50594 14.2559C9.67012 14.0918 9.89281 13.9995 10.125 13.9995C10.3572 13.9995 10.5799 14.0918 10.7441 14.2559L12.75 16.263L18.2559 10.7559C18.3372 10.6746 18.4337 10.61 18.5399 10.566C18.6462 10.522 18.76 10.4993 18.875 10.4993C18.99 10.4993 19.1038 10.522 19.2101 10.566C19.3163 10.61 19.4128 10.6746 19.4941 10.7559Z" fill="#D1CD4B"/>
</svg>
