<svg width="28" height="28" viewBox="0 0 28 28" fill="none" xmlns="http://www.w3.org/2000/svg">
<path d="M23.625 7.875C23.625 8.10706 23.5328 8.32962 23.3687 8.49372C23.2046 8.65781 22.9821 8.75 22.75 8.75H19.25C19.0179 8.75 18.7954 8.65781 18.6313 8.49372C18.4672 8.32962 18.375 8.10706 18.375 7.875C18.375 7.64294 18.4672 7.42038 18.6313 7.25628C18.7954 7.09219 19.0179 7 19.25 7H22.75C22.9821 7 23.2046 7.09219 23.3687 7.25628C23.5328 7.42038 23.625 7.64294 23.625 7.875ZM22.75 10.5H19.25C19.0179 10.5 18.7954 10.5922 18.6313 10.7563C18.4672 10.9204 18.375 11.1429 18.375 11.375C18.375 11.6071 18.4672 11.8296 18.6313 11.9937C18.7954 12.1578 19.0179 12.25 19.25 12.25H22.75C22.9821 12.25 23.2046 12.1578 23.3687 11.9937C23.5328 11.8296 23.625 11.6071 23.625 11.375C23.625 11.1429 23.5328 10.9204 23.3687 10.7563C23.2046 10.5922 22.9821 10.5 22.75 10.5ZM27.125 5.25V22.75C27.125 23.2141 26.9406 23.6592 26.6124 23.9874C26.2842 24.3156 25.8391 24.5 25.375 24.5H16.625C16.1609 24.5 15.7158 24.3156 15.3876 23.9874C15.0594 23.6592 14.875 23.2141 14.875 22.75V21H10.5V22.75H12.25C12.4821 22.75 12.7046 22.8422 12.8687 23.0063C13.0328 23.1704 13.125 23.3929 13.125 23.625C13.125 23.8571 13.0328 24.0796 12.8687 24.2437C12.7046 24.4078 12.4821 24.5 12.25 24.5H7C6.76794 24.5 6.54538 24.4078 6.38128 24.2437C6.21719 24.0796 6.125 23.8571 6.125 23.625C6.125 23.3929 6.21719 23.1704 6.38128 23.0063C6.54538 22.8422 6.76794 22.75 7 22.75H8.75V21H3.5C2.80381 21 2.13613 20.7234 1.64384 20.2312C1.15156 19.7389 0.875 19.0712 0.875 18.375V10.5C0.875 9.80381 1.15156 9.13613 1.64384 8.64384C2.13613 8.15156 2.80381 7.875 3.5 7.875H14.875V5.25C14.875 4.78587 15.0594 4.34075 15.3876 4.01256C15.7158 3.68437 16.1609 3.5 16.625 3.5H25.375C25.8391 3.5 26.2842 3.68437 26.6124 4.01256C26.9406 4.34075 27.125 4.78587 27.125 5.25ZM14.875 19.25V9.625H3.5C3.26794 9.625 3.04538 9.71719 2.88128 9.88128C2.71719 10.0454 2.625 10.2679 2.625 10.5V18.375C2.625 18.6071 2.71719 18.8296 2.88128 18.9937C3.04538 19.1578 3.26794 19.25 3.5 19.25H14.875ZM25.375 22.75V5.25H16.625V22.75H25.375ZM21 18.375C20.7404 18.375 20.4867 18.452 20.2708 18.5962C20.055 18.7404 19.8867 18.9454 19.7874 19.1852C19.6881 19.4251 19.6621 19.689 19.7127 19.9436C19.7634 20.1982 19.8884 20.432 20.0719 20.6156C20.2555 20.7991 20.4893 20.9241 20.7439 20.9748C20.9985 21.0254 21.2624 20.9994 21.5023 20.9001C21.7421 20.8008 21.9471 20.6325 22.0913 20.4167C22.2355 20.2008 22.3125 19.9471 22.3125 19.6875C22.3125 19.3394 22.1742 19.0056 21.9281 18.7594C21.6819 18.5133 21.3481 18.375 21 18.375Z" fill="#023A4A"/>
</svg>
