<svg width="28" height="28" viewBox="0 0 28 28" fill="none" xmlns="http://www.w3.org/2000/svg">
<path d="M23.6874 4.31268C22.2975 2.92089 20.4792 2.03798 18.526 1.80641C16.5728 1.57484 14.5985 2.00813 12.9217 3.03636C11.245 4.06458 9.96355 5.62776 9.28425 7.47366C8.60496 9.31955 8.56741 11.3405 9.17767 13.2103L3.13798 19.25C2.97477 19.4119 2.84537 19.6047 2.75731 19.817C2.66925 20.0294 2.62427 20.2572 2.62501 20.4871V23.625C2.62501 24.0891 2.80938 24.5343 3.13757 24.8625C3.46576 25.1906 3.91088 25.375 4.37501 25.375H7.87501C8.10707 25.375 8.32963 25.2828 8.49373 25.1187C8.65782 24.9546 8.75001 24.7321 8.75001 24.5V22.75H10.5C10.7321 22.75 10.9546 22.6578 11.1187 22.4937C11.2828 22.3296 11.375 22.1071 11.375 21.875V20.125H13.125C13.24 20.1251 13.3538 20.1026 13.46 20.0586C13.5662 20.0147 13.6628 19.9503 13.7441 19.8691L14.7897 18.8224C15.6649 19.107 16.5797 19.2514 17.5 19.25H17.5109C19.2406 19.2479 20.9309 18.7332 22.3682 17.7709C23.8056 16.8086 24.9254 15.4419 25.5864 13.8435C26.2473 12.245 26.4196 10.4866 26.0817 8.79021C25.7437 7.09385 24.9105 5.53573 23.6874 4.31268ZM24.5 10.7297C24.3808 14.4583 21.2461 17.4956 17.512 17.5H17.5C16.6143 17.5015 15.7363 17.3341 14.9133 17.0067C14.7523 16.9369 14.574 16.917 14.4016 16.9498C14.2291 16.9826 14.0706 17.0664 13.9464 17.1905L12.763 18.375H10.5C10.2679 18.375 10.0454 18.4672 9.88129 18.6313C9.7172 18.7954 9.62501 19.018 9.62501 19.25V21H7.87501C7.64294 21 7.42038 21.0922 7.25629 21.2563C7.0922 21.4204 7.00001 21.643 7.00001 21.875V23.625H4.37501V20.4871L10.8095 14.0536C10.9336 13.9295 11.0175 13.7709 11.0502 13.5985C11.083 13.426 11.0632 13.2477 10.9933 13.0867C10.6649 12.2609 10.4975 11.38 10.5 10.4913C10.5 6.75721 13.5417 3.62252 17.2703 3.5033C18.2281 3.47134 19.1822 3.63637 20.0736 3.98818C20.965 4.33998 21.7746 4.87107 22.4524 5.54854C23.1302 6.226 23.6616 7.03542 24.0139 7.92665C24.3661 8.81787 24.5315 9.77193 24.5 10.7297ZM21 8.31252C21 8.57211 20.923 8.82587 20.7788 9.04171C20.6346 9.25755 20.4296 9.42577 20.1898 9.52511C19.95 9.62445 19.6861 9.65044 19.4315 9.5998C19.1769 9.54916 18.943 9.42415 18.7594 9.2406C18.5759 9.05704 18.4509 8.82318 18.4002 8.56858C18.3496 8.31398 18.3756 8.05008 18.4749 7.81025C18.5743 7.57042 18.7425 7.36544 18.9583 7.22122C19.1742 7.077 19.4279 7.00002 19.6875 7.00002C20.0356 7.00002 20.3694 7.1383 20.6156 7.38444C20.8617 7.63058 21 7.96442 21 8.31252Z" fill="#023A4A"/>
</svg>
