<svg width="36" height="36" viewBox="0 0 36 36" fill="none" xmlns="http://www.w3.org/2000/svg">
<rect width="36" height="36" rx="8" fill="#D1CD4B" fill-opacity="0.1"/>
<path d="M26.75 24.25H26.125V13.625C26.125 13.4592 26.0592 13.3003 25.9419 13.1831C25.8247 13.0658 25.6658 13 25.5 13H22.375V11.125C22.375 10.9592 22.3092 10.8003 22.1919 10.6831C22.0747 10.5658 21.9158 10.5 21.75 10.5H14.25C14.0842 10.5 13.9253 10.5658 13.8081 10.6831C13.6908 10.8003 13.625 10.9592 13.625 11.125V15.5H10.5C10.3342 15.5 10.1753 15.5658 10.0581 15.6831C9.94085 15.8003 9.875 15.9592 9.875 16.125V24.25H9.25C9.08424 24.25 8.92527 24.3158 8.80806 24.4331C8.69085 24.5503 8.625 24.7092 8.625 24.875C8.625 25.0408 8.69085 25.1997 8.80806 25.3169C8.92527 25.4342 9.08424 25.5 9.25 25.5H26.75C26.9158 25.5 27.0747 25.4342 27.1919 25.3169C27.3092 25.1997 27.375 25.0408 27.375 24.875C27.375 24.7092 27.3092 24.5503 27.1919 24.4331C27.0747 24.3158 26.9158 24.25 26.75 24.25ZM11.125 16.75H14.25C14.4158 16.75 14.5747 16.6842 14.6919 16.5669C14.8092 16.4497 14.875 16.2908 14.875 16.125V11.75H21.125V13.625C21.125 13.7908 21.1908 13.9497 21.3081 14.0669C21.4253 14.1842 21.5842 14.25 21.75 14.25H24.875V24.25H19.875V21.125C19.875 20.9592 19.8092 20.8003 19.6919 20.6831C19.5747 20.5658 19.4158 20.5 19.25 20.5H16.75C16.5842 20.5 16.4253 20.5658 16.3081 20.6831C16.1908 20.8003 16.125 20.9592 16.125 21.125V24.25H11.125V16.75ZM18.625 24.25H17.375V21.75H18.625V24.25ZM16.75 13.625C16.75 13.4592 16.8158 13.3003 16.9331 13.1831C17.0503 13.0658 17.2092 13 17.375 13H18.625C18.7908 13 18.9497 13.0658 19.0669 13.1831C19.1842 13.3003 19.25 13.4592 19.25 13.625C19.25 13.7908 19.1842 13.9497 19.0669 14.0669C18.9497 14.1842 18.7908 14.25 18.625 14.25H17.375C17.2092 14.25 17.0503 14.1842 16.9331 14.0669C16.8158 13.9497 16.75 13.7908 16.75 13.625ZM16.75 16.125C16.75 15.9592 16.8158 15.8003 16.9331 15.6831C17.0503 15.5658 17.2092 15.5 17.375 15.5H18.625C18.7908 15.5 18.9497 15.5658 19.0669 15.6831C19.1842 15.8003 19.25 15.9592 19.25 16.125C19.25 16.2908 19.1842 16.4497 19.0669 16.5669C18.9497 16.6842 18.7908 16.75 18.625 16.75H17.375C17.2092 16.75 17.0503 16.6842 16.9331 16.5669C16.8158 16.4497 16.75 16.2908 16.75 16.125ZM21.125 16.125C21.125 15.9592 21.1908 15.8003 21.3081 15.6831C21.4253 15.5658 21.5842 15.5 21.75 15.5H23C23.1658 15.5 23.3247 15.5658 23.4419 15.6831C23.5592 15.8003 23.625 15.9592 23.625 16.125C23.625 16.2908 23.5592 16.4497 23.4419 16.5669C23.3247 16.6842 23.1658 16.75 23 16.75H21.75C21.5842 16.75 21.4253 16.6842 21.3081 16.5669C21.1908 16.4497 21.125 16.2908 21.125 16.125ZM14.875 18.625C14.875 18.7908 14.8092 18.9497 14.6919 19.0669C14.5747 19.1842 14.4158 19.25 14.25 19.25H13C12.8342 19.25 12.6753 19.1842 12.5581 19.0669C12.4408 18.9497 12.375 18.7908 12.375 18.625C12.375 18.4592 12.4408 18.3003 12.5581 18.1831C12.6753 18.0658 12.8342 18 13 18H14.25C14.4158 18 14.5747 18.0658 14.6919 18.1831C14.8092 18.3003 14.875 18.4592 14.875 18.625ZM14.875 21.125C14.875 21.2908 14.8092 21.4497 14.6919 21.5669C14.5747 21.6842 14.4158 21.75 14.25 21.75H13C12.8342 21.75 12.6753 21.6842 12.5581 21.5669C12.4408 21.4497 12.375 21.2908 12.375 21.125C12.375 20.9592 12.4408 20.8003 12.5581 20.6831C12.6753 20.5658 12.8342 20.5 13 20.5H14.25C14.4158 20.5 14.5747 20.5658 14.6919 20.6831C14.8092 20.8003 14.875 20.9592 14.875 21.125ZM16.75 18.625C16.75 18.4592 16.8158 18.3003 16.9331 18.1831C17.0503 18.0658 17.2092 18 17.375 18H18.625C18.7908 18 18.9497 18.0658 19.0669 18.1831C19.1842 18.3003 19.25 18.4592 19.25 18.625C19.25 18.7908 19.1842 18.9497 19.0669 19.0669C18.9497 19.1842 18.7908 19.25 18.625 19.25H17.375C17.2092 19.25 17.0503 19.1842 16.9331 19.0669C16.8158 18.9497 16.75 18.7908 16.75 18.625ZM21.125 18.625C21.125 18.4592 21.1908 18.3003 21.3081 18.1831C21.4253 18.0658 21.5842 18 21.75 18H23C23.1658 18 23.3247 18.0658 23.4419 18.1831C23.5592 18.3003 23.625 18.4592 23.625 18.625C23.625 18.7908 23.5592 18.9497 23.4419 19.0669C23.3247 19.1842 23.1658 19.25 23 19.25H21.75C21.5842 19.25 21.4253 19.1842 21.3081 19.0669C21.1908 18.9497 21.125 18.7908 21.125 18.625ZM21.125 21.125C21.125 20.9592 21.1908 20.8003 21.3081 20.6831C21.4253 20.5658 21.5842 20.5 21.75 20.5H23C23.1658 20.5 23.3247 20.5658 23.4419 20.6831C23.5592 20.8003 23.625 20.9592 23.625 21.125C23.625 21.2908 23.5592 21.4497 23.4419 21.5669C23.3247 21.6842 23.1658 21.75 23 21.75H21.75C21.5842 21.75 21.4253 21.6842 21.3081 21.5669C21.1908 21.4497 21.125 21.2908 21.125 21.125Z" fill="#D1CD4B"/>
</svg>
