<svg width="28" height="28" viewBox="0 0 28 28" fill="none" xmlns="http://www.w3.org/2000/svg">
<path d="M25.9438 16.6107C25.8707 16.4068 25.7848 16.2077 25.6867 16.0146L21.1378 5.66557C21.0948 5.56589 21.0332 5.47532 20.9563 5.39869C20.6312 5.0736 20.2454 4.81572 19.8207 4.63978C19.396 4.46384 18.9408 4.37328 18.4811 4.37328C18.0214 4.37328 17.5662 4.46384 17.1415 4.63978C16.7168 4.81572 16.331 5.0736 16.0059 5.39869C15.8424 5.56239 15.7504 5.78419 15.75 6.01557V8.74994H12.25V6.01557C12.2501 5.90062 12.2275 5.78679 12.1836 5.68057C12.1397 5.57435 12.0753 5.47782 11.9941 5.3965C11.669 5.07141 11.2832 4.81353 10.8585 4.63759C10.4338 4.46165 9.9786 4.37109 9.51891 4.37109C9.05921 4.37109 8.60402 4.46165 8.17933 4.63759C7.75464 4.81353 7.36877 5.07141 7.04375 5.3965C6.96684 5.47313 6.90522 5.5637 6.86219 5.66338L2.31328 16.0124C2.21516 16.2055 2.12931 16.4046 2.05625 16.6085C1.79867 17.3292 1.70179 18.0976 1.77238 18.8597C1.84298 19.6217 2.07934 20.3592 2.46492 21.0203C2.85051 21.6815 3.37598 22.2503 4.00453 22.687C4.63308 23.1237 5.3495 23.4176 6.10362 23.5483C6.85774 23.679 7.63131 23.6432 8.37014 23.4435C9.10898 23.2437 9.7952 22.8849 10.3807 22.392C10.9663 21.8991 11.437 21.2842 11.7599 20.5903C12.0828 19.8964 12.2501 19.1403 12.25 18.3749V10.4999H15.75V18.3749C15.7496 19.1404 15.9166 19.8967 16.2393 20.5908C16.562 21.2849 17.0325 21.9 17.618 22.3931C18.2035 22.8862 18.8897 23.2453 19.6285 23.4453C20.3674 23.6453 21.1411 23.6812 21.8953 23.5507C22.6495 23.4202 23.3661 23.1263 23.9948 22.6896C24.6235 22.253 25.1491 21.6842 25.5348 21.023C25.9205 20.3618 26.1569 19.6243 26.2276 18.8621C26.2982 18.0999 26.2014 17.3315 25.9438 16.6107ZM8.39016 6.5351C8.68188 6.28946 9.04586 6.14585 9.42671 6.12611C9.80756 6.10636 10.1844 6.21157 10.5 6.42572V14.4659C9.81684 13.8524 8.98447 13.4293 8.08629 13.2389C7.1881 13.0485 6.25565 13.0974 5.38234 13.3809L8.39016 6.5351ZM7 21.8749C6.30777 21.8749 5.63108 21.6697 5.0555 21.2851C4.47993 20.9005 4.03133 20.3539 3.76642 19.7143C3.50152 19.0748 3.4322 18.3711 3.56725 17.6921C3.7023 17.0132 4.03564 16.3896 4.52513 15.9001C5.01461 15.4106 5.63825 15.0772 6.31718 14.9422C6.99612 14.8071 7.69985 14.8765 8.33939 15.1414C8.97893 15.4063 9.52556 15.8549 9.91014 16.4304C10.2947 17.006 10.5 17.6827 10.5 18.3749C10.5 19.3032 10.1313 20.1934 9.47487 20.8498C8.8185 21.5062 7.92826 21.8749 7 21.8749ZM17.5 6.42463C17.8156 6.21048 18.1924 6.10527 18.5733 6.12501C18.9541 6.14476 19.3181 6.28837 19.6098 6.534L22.6177 13.3787C21.7443 13.0954 20.8117 13.0466 19.9136 13.2372C19.0154 13.4278 18.183 13.8512 17.5 14.4648V6.42463ZM21 21.8749C20.3078 21.8749 19.6311 21.6697 19.0555 21.2851C18.4799 20.9005 18.0313 20.3539 17.7664 19.7143C17.5015 19.0748 17.4322 18.3711 17.5673 17.6921C17.7023 17.0132 18.0356 16.3896 18.5251 15.9001C19.0146 15.4106 19.6383 15.0772 20.3172 14.9422C20.9961 14.8071 21.6999 14.8765 22.3394 15.1414C22.9789 15.4063 23.5256 15.8549 23.9101 16.4304C24.2947 17.006 24.5 17.6827 24.5 18.3749C24.5 19.3032 24.1313 20.1934 23.4749 20.8498C22.8185 21.5062 21.9283 21.8749 21 21.8749Z" fill="#1D1D1D"/>
</svg>
