<svg width="36" height="36" viewBox="0 0 36 36" fill="none" xmlns="http://www.w3.org/2000/svg">
<rect width="36" height="36" rx="8" fill="#D1CD4B" fill-opacity="0.1"/>
<path d="M24.25 10.5H11.75C11.4185 10.5 11.1005 10.6317 10.8661 10.8661C10.6317 11.1005 10.5 11.4185 10.5 11.75V24.25C10.5 24.5815 10.6317 24.8995 10.8661 25.1339C11.1005 25.3683 11.4185 25.5 11.75 25.5H24.25C24.5815 25.5 24.8995 25.3683 25.1339 25.1339C25.3683 24.8995 25.5 24.5815 25.5 24.25V11.75C25.5 11.4185 25.3683 11.1005 25.1339 10.8661C24.8995 10.6317 24.5815 10.5 24.25 10.5ZM15.5 17.375C15.5 16.8805 15.6466 16.3972 15.9213 15.9861C16.196 15.575 16.5865 15.2545 17.0433 15.0653C17.5001 14.8761 18.0028 14.8266 18.4877 14.923C18.9727 15.0195 19.4181 15.2576 19.7678 15.6072C20.1174 15.9569 20.3555 16.4023 20.452 16.8873C20.5484 17.3722 20.4989 17.8749 20.3097 18.3317C20.1205 18.7885 19.8 19.179 19.3889 19.4537C18.9778 19.7284 18.4945 19.875 18 19.875C17.337 19.875 16.7011 19.6116 16.2322 19.1428C15.7634 18.6739 15.5 18.038 15.5 17.375ZM13.3648 24.25C13.6847 23.4626 14.1989 22.7691 14.8594 22.2344C15.7487 21.5165 16.8571 21.1249 18 21.1249C19.1429 21.1249 20.2513 21.5165 21.1406 22.2344C21.8011 22.7691 22.3153 23.4626 22.6352 24.25H13.3648ZM24.25 24.25H23.9633C23.6854 23.3654 23.2139 22.5538 22.5831 21.8741C21.9522 21.1945 21.1779 20.664 20.3164 20.3211C20.9297 19.8393 21.3776 19.1783 21.5976 18.4301C21.8177 17.6819 21.799 16.8837 21.5441 16.1466C21.2892 15.4095 20.8109 14.7702 20.1757 14.3177C19.5404 13.8652 18.7799 13.6221 18 13.6221C17.2201 13.6221 16.4596 13.8652 15.8243 14.3177C15.1891 14.7702 14.7108 15.4095 14.4559 16.1466C14.201 16.8837 14.1823 17.6819 14.4024 18.4301C14.6224 19.1783 15.0703 19.8393 15.6836 20.3211C14.8221 20.664 14.0478 21.1945 13.4169 21.8741C12.7861 22.5538 12.3146 23.3654 12.0367 24.25H11.75V11.75H24.25V24.25Z" fill="#D1CD4B"/>
</svg>
