<svg width="14" height="15" viewBox="0 0 14 15" fill="none" xmlns="http://www.w3.org/2000/svg">
<g clip-path="url(#clip0_5820_3233)">
<path d="M11.6048 7.89852C11.6603 7.81456 11.6978 7.72071 11.715 7.62255C11.7321 7.52439 11.7287 7.4239 11.7047 7.32706C11.6808 7.23021 11.637 7.13897 11.5758 7.05875C11.5146 6.97853 11.4373 6.91096 11.3484 6.86004L3.49816 2.26422C3.3705 2.18981 3.22409 2.15054 3.07487 2.1507C2.63179 2.1507 2.27338 2.48822 2.27338 2.90498V12.0943C2.27338 12.2353 2.31531 12.3732 2.39443 12.4928C2.62863 12.8463 3.12234 12.9545 3.49816 12.7343L11.3484 8.13928C11.4521 8.07833 11.5407 7.99528 11.6056 7.89776L11.6048 7.89852ZM12.195 9.42005L4.34553 14.0151C3.21807 14.6757 1.73457 14.3503 1.03357 13.2905C0.796566 12.9333 0.670561 12.5183 0.67041 12.0943V2.90575C0.67041 1.65546 1.74644 0.642883 3.07566 0.642883C3.52427 0.642883 3.96417 0.760979 4.34553 0.984217L12.195 5.58004C13.3225 6.23985 13.6682 7.63414 12.9664 8.69471C12.7718 8.98881 12.5075 9.23719 12.195 9.42005V9.42005Z" fill="#E8EEEF"/>
</g>
<defs>
<clipPath id="clip0_5820_3233">
<rect width="13.7143" height="13.7143" fill="white" transform="translate(0.143066 0.642883)"/>
</clipPath>
</defs>
</svg>
