<svg width="28" height="28" viewBox="0 0 28 28" fill="none" xmlns="http://www.w3.org/2000/svg">
<path d="M19.2501 25.375C19.2501 25.6071 19.158 25.8296 18.9939 25.9937C18.8298 26.1578 18.6072 26.25 18.3751 26.25H9.62514C9.39308 26.25 9.17052 26.1578 9.00642 25.9937C8.84233 25.8296 8.75014 25.6071 8.75014 25.375C8.75014 25.1429 8.84233 24.9204 9.00642 24.7563C9.17052 24.5922 9.39308 24.5 9.62514 24.5H18.3751C18.6072 24.5 18.8298 24.5922 18.9939 24.7563C19.158 24.9204 19.2501 25.1429 19.2501 25.375ZM23.6251 11.375C23.6289 12.8337 23.2994 14.2739 22.6617 15.5858C22.0241 16.8978 21.0951 18.0467 19.9458 18.9448C19.7309 19.1096 19.5565 19.3213 19.4359 19.5637C19.3153 19.8062 19.2518 20.073 19.2501 20.3438V21C19.2501 21.4641 19.0658 21.9093 18.7376 22.2374C18.4094 22.5656 17.9643 22.75 17.5001 22.75H10.5001C10.036 22.75 9.5909 22.5656 9.26271 22.2374C8.93452 21.9093 8.75014 21.4641 8.75014 21V20.3438C8.74996 20.0762 8.68845 19.8123 8.57032 19.5722C8.45219 19.3322 8.2806 19.1224 8.06874 18.9591C6.92227 18.0662 5.99394 16.9242 5.35403 15.6195C4.71411 14.3149 4.37937 12.8817 4.37514 11.4286C4.34671 6.21578 8.55983 1.87469 13.7683 1.75C15.0516 1.71908 16.3282 1.94518 17.5228 2.41502C18.7175 2.88486 19.8061 3.58893 20.7246 4.48579C21.643 5.38265 22.3728 6.45418 22.871 7.63732C23.3691 8.82045 23.6255 10.0913 23.6251 11.375ZM21.8751 11.375C21.8755 10.3246 21.6656 9.28481 21.258 8.31675C20.8504 7.3487 20.2533 6.47196 19.5017 5.73815C18.7502 5.00435 17.8595 4.42831 16.8819 4.04393C15.9044 3.65956 14.8599 3.47462 13.8098 3.5C9.54421 3.60063 6.10217 7.15203 6.12514 11.4177C6.12914 12.6061 6.40339 13.7781 6.92714 14.8449C7.45089 15.9117 8.21042 16.8455 9.14827 17.5755C9.56985 17.9032 9.91085 18.323 10.1452 18.8029C10.3795 19.2827 10.5009 19.8098 10.5001 20.3438V21H17.5001V20.3438C17.5014 19.8083 17.6249 19.2801 17.8612 18.7996C18.0976 18.3191 18.4406 17.8989 18.864 17.5711C19.8048 16.8359 20.5651 15.8955 21.0869 14.8217C21.6088 13.7478 21.8784 12.5689 21.8751 11.375ZM20.1131 10.3534C19.8862 9.08611 19.2765 7.91871 18.366 7.00842C17.4555 6.09813 16.288 5.48865 15.0206 5.26203C14.9073 5.24293 14.7913 5.24633 14.6793 5.27205C14.5673 5.29777 14.4614 5.3453 14.3678 5.41193C14.2742 5.47855 14.1946 5.56297 14.1335 5.66036C14.0725 5.75775 14.0313 5.86621 14.0122 5.97953C13.9931 6.09286 13.9965 6.20884 14.0222 6.32085C14.0479 6.43286 14.0954 6.53871 14.1621 6.63235C14.2287 6.72599 14.3131 6.80559 14.4105 6.86661C14.5079 6.92763 14.6163 6.96887 14.7297 6.98797C16.542 7.29313 18.0798 8.83094 18.3872 10.6466C18.4218 10.8504 18.5275 11.0353 18.6854 11.1686C18.8434 11.302 19.0434 11.3751 19.2501 11.375C19.2996 11.3747 19.349 11.3707 19.3978 11.363C19.6265 11.3239 19.8304 11.1956 19.9645 11.0063C20.0986 10.817 20.1521 10.5822 20.1131 10.3534Z" fill="#D1CD4B"/>
</svg>
