<svg width="24" height="24" viewBox="0 0 24 24" fill="none" xmlns="http://www.w3.org/2000/svg">
<path d="M18.047 16.0753C18.9954 15.2786 19.753 14.2794 20.2641 13.1511C20.7752 12.0228 21.0267 10.7943 21.0001 9.55594C20.9063 5.27063 17.4741 1.73719 13.1963 1.51219C12.0926 1.45212 10.988 1.61446 9.94825 1.98958C8.90846 2.3647 7.95467 2.94495 7.1435 3.69586C6.33234 4.44677 5.68034 5.35304 5.22625 6.36084C4.77215 7.36864 4.52521 8.45741 4.50009 9.56251L2.3954 13.6106C2.38696 13.6275 2.37852 13.6444 2.37102 13.6613C2.22013 14.013 2.20938 14.409 2.34096 14.7684C2.47255 15.1278 2.73652 15.4233 3.07884 15.5944L3.10227 15.6047L5.25009 16.5881V19.5C5.25009 19.8978 5.40812 20.2794 5.68942 20.5607C5.97073 20.842 6.35226 21 6.75009 21H11.2501C11.449 21 11.6398 20.921 11.7804 20.7803C11.9211 20.6397 12.0001 20.4489 12.0001 20.25C12.0001 20.0511 11.9211 19.8603 11.7804 19.7197C11.6398 19.579 11.449 19.5 11.2501 19.5H6.75009V16.1072C6.75019 15.9634 6.70898 15.8227 6.63136 15.7017C6.55374 15.5807 6.44298 15.4845 6.31227 15.4247L3.75009 14.25L5.9129 10.0931C5.96927 9.98749 5.99919 9.86975 6.00009 9.75001C5.99987 8.22032 6.51923 6.73593 7.47307 5.54005C8.42691 4.34418 9.75865 3.50775 11.2501 3.16782V4.62938C10.7497 4.8063 10.3279 5.15443 10.0594 5.61224C9.7908 6.07005 9.69274 6.60806 9.78249 7.13118C9.87224 7.6543 10.144 8.12885 10.5498 8.47096C10.9556 8.81307 11.4693 9.0007 12.0001 9.0007C12.5309 9.0007 13.0445 8.81307 13.4503 8.47096C13.8561 8.12885 14.1279 7.6543 14.2177 7.13118C14.3074 6.60806 14.2094 6.07005 13.9408 5.61224C13.6723 5.15443 13.2505 4.8063 12.7501 4.62938V3.00001C12.872 3.00001 12.9938 3.00001 13.1157 3.00938C14.4457 3.08557 15.7237 3.5522 16.7899 4.35093C17.8561 5.14966 18.6632 6.24502 19.1101 7.50001H17.2501C17.1401 7.49996 17.0314 7.52413 16.9317 7.57079C16.8321 7.61745 16.7439 7.68547 16.6735 7.77001L14.282 10.6406C13.7832 10.4548 13.2347 10.4513 12.7336 10.6308C12.2325 10.8103 11.8111 11.1613 11.5438 11.6216C11.2765 12.0819 11.1806 12.6219 11.273 13.1461C11.3655 13.6703 11.6403 14.1449 12.049 14.486C12.4576 14.827 12.9737 15.0126 13.506 15.0099C14.0383 15.0071 14.5524 14.8163 14.9575 14.471C15.3626 14.1257 15.6326 13.6483 15.7196 13.1232C15.8067 12.5981 15.7052 12.0591 15.4332 11.6016L17.6016 9.00001H19.457C19.4795 9.19501 19.4932 9.39188 19.4982 9.59063C19.5216 10.6649 19.2891 11.7292 18.82 12.6959C18.3508 13.6625 17.6585 14.5037 16.8001 15.15C16.6943 15.2293 16.6114 15.3351 16.5597 15.4568C16.508 15.5785 16.4894 15.7116 16.5057 15.8428L17.2557 21.8428C17.2785 22.0239 17.3666 22.1905 17.5035 22.3113C17.6404 22.4322 17.8166 22.4989 17.9991 22.4991C18.0305 22.4991 18.0618 22.4972 18.0929 22.4934C18.1907 22.4813 18.2851 22.45 18.3707 22.4013C18.4564 22.3526 18.5316 22.2876 18.5921 22.2098C18.6526 22.1321 18.6972 22.0432 18.7234 21.9482C18.7495 21.8532 18.7567 21.754 18.7445 21.6563L18.047 16.0753ZM12.0001 7.50001C11.8517 7.50001 11.7067 7.45602 11.5834 7.37361C11.4601 7.2912 11.3639 7.17406 11.3072 7.03702C11.2504 6.89997 11.2356 6.74917 11.2645 6.60369C11.2934 6.4582 11.3649 6.32457 11.4698 6.21968C11.5746 6.11479 11.7083 6.04336 11.8538 6.01442C11.9993 5.98548 12.1501 6.00033 12.2871 6.0571C12.4241 6.11386 12.5413 6.20999 12.6237 6.33333C12.7061 6.45667 12.7501 6.60167 12.7501 6.75001C12.7501 6.94892 12.6711 7.13968 12.5304 7.28034C12.3898 7.42099 12.199 7.50001 12.0001 7.50001ZM13.5001 13.5C13.3517 13.5 13.2067 13.456 13.0834 13.3736C12.9601 13.2912 12.8639 13.1741 12.8072 13.037C12.7504 12.9 12.7356 12.7492 12.7645 12.6037C12.7934 12.4582 12.8649 12.3246 12.9698 12.2197C13.0746 12.1148 13.2083 12.0434 13.3538 12.0144C13.4993 11.9855 13.6501 12.0003 13.7871 12.0571C13.9241 12.1139 14.0413 12.21 14.1237 12.3333C14.2061 12.4567 14.2501 12.6017 14.2501 12.75C14.2501 12.9489 14.1711 13.1397 14.0304 13.2803C13.8898 13.421 13.699 13.5 13.5001 13.5Z" fill="#D1CD4B"/>
</svg>
