<svg width="22" height="23" viewBox="0 0 22 23" fill="none" xmlns="http://www.w3.org/2000/svg">
<g clip-path="url(#clip0_5813_2699)">
<path d="M19.6743 2.16699H2.3257C1.90848 2.16699 1.57141 2.50406 1.57141 2.92128V20.2698C1.57141 20.6871 1.90848 21.0241 2.3257 21.0241H19.6743C20.0915 21.0241 20.4286 20.6871 20.4286 20.2698V2.92128C20.4286 2.50406 20.0915 2.16699 19.6743 2.16699ZM7.16491 18.2356H4.36698V9.23606H7.16491V18.2356ZM5.76713 8.00564C5.44638 8.00564 5.13284 7.91052 4.86615 7.73233C4.59946 7.55413 4.3916 7.30085 4.26886 7.00452C4.14611 6.70819 4.114 6.38212 4.17657 6.06754C4.23915 5.75296 4.3936 5.464 4.6204 5.2372C4.8472 5.01039 5.13616 4.85594 5.45074 4.79337C5.76533 4.73079 6.0914 4.76291 6.38773 4.88565C6.68406 5.0084 6.93734 5.21626 7.11553 5.48294C7.29373 5.74963 7.38884 6.06318 7.38884 6.38392C7.38648 7.27963 6.66048 8.00564 5.76713 8.00564ZM17.6401 18.2356H14.8445V13.8584C14.8445 12.8142 14.8256 11.473 13.3901 11.473C11.9358 11.473 11.7118 12.6091 11.7118 13.783V18.2356H8.91863V9.23606H11.6011V10.4665H11.6388C12.0112 9.75935 12.9234 9.01214 14.2858 9.01214C17.1191 9.01214 17.6401 10.8766 17.6401 13.2998V18.2356Z" fill="#D1CD4B"/>
</g>
<defs>
<clipPath id="clip0_5813_2699">
<rect width="18.8571" height="18.8571" fill="white" transform="translate(1.57141 2.16699)"/>
</clipPath>
</defs>
</svg>
