<svg width="673" height="204" viewBox="0 0 673 204" fill="none" xmlns="http://www.w3.org/2000/svg">
<g clip-path="url(#clip0_5485_19283)">
<path d="M504.759 1.47081e-05L673 0L673 10.7361L504.759 10.7361L504.759 1.47081e-05Z" fill="#CECA37"/>
<path d="M168.245 64.4164L336.486 64.4164L336.486 107.361L168.245 107.361L168.245 64.4164Z" fill="#CECA37"/>
<path d="M336.745 42.9443L504.986 42.9442L504.986 64.4164L336.745 64.4164L336.745 42.9443Z" fill="#CECA37"/>
<path d="M334.898 85.8835L504.986 85.8835L504.986 107.356L334.898 107.356L334.898 85.8835Z" fill="#CECA37"/>
<path d="M504.986 21.4721L673 21.4721L673 32.2082L504.986 32.2082L504.986 21.4721Z" fill="#CECA37"/>
<path d="M504.759 42.9442L673 42.9442L673 53.6803L504.759 53.6803L504.759 42.9442Z" fill="#CECA37"/>
<path d="M504.986 64.4164L673 64.4164L673 75.1524L504.986 75.1524L504.986 64.4164Z" fill="#CECA37"/>
<path d="M504.759 85.8835L673 85.8835L673 96.6196L504.759 96.6196L504.759 85.8835Z" fill="#CECA37"/>
<path d="M-0.000854492 107.38L168.24 107.38L168.24 150.325L-0.000850738 150.325L-0.000854492 107.38Z" fill="#CECA37"/>
<path d="M168.245 150.32L336.486 150.32L336.486 193.264L168.245 193.264L168.245 150.32Z" fill="#CECA37"/>
<path d="M336.745 128.853L504.986 128.853L504.986 150.325L336.745 150.325L336.745 128.853Z" fill="#CECA37"/>
<path d="M336.745 85.9083L504.986 85.9083L504.986 107.38L336.745 107.38L336.745 85.9083Z" fill="#CECA37"/>
<path d="M334.898 171.792L504.986 171.792L504.986 193.264L334.898 193.264L334.898 171.792Z" fill="#CECA37"/>
<path d="M504.986 107.38L673 107.38L673 118.116L504.986 118.117L504.986 107.38Z" fill="#CECA37"/>
<path d="M504.986 85.9083L673 85.9083L673 96.6444L504.986 96.6444L504.986 85.9083Z" fill="#CECA37"/>
<path d="M504.759 128.853L673 128.853L673 139.589L504.759 139.589L504.759 128.853Z" fill="#CECA37"/>
<path d="M504.986 150.32L673 150.32L673 161.056L504.986 161.056L504.986 150.32Z" fill="#CECA37"/>
<path d="M504.759 171.792L673 171.792L673 182.528L504.759 182.528L504.759 171.792Z" fill="#CECA37"/>
<path d="M504.986 193.264L673 193.264L673 204L504.986 204L504.986 193.264Z" fill="#CECA37"/>
</g>
<defs>
<clipPath id="clip0_5485_19283">
<rect width="673" height="204" fill="white" transform="matrix(-1 8.74228e-08 8.74228e-08 1 673 0)"/>
</clipPath>
</defs>
</svg>
