<svg width="16" height="16" viewBox="0 0 16 16" fill="none" xmlns="http://www.w3.org/2000/svg">
<g clip-path="url(#clip0_6084_3659)">
<path d="M9.0079 7.98442L14.6925 2.31506C14.8048 2.18423 14.8635 2.01594 14.8568 1.84383C14.8502 1.67171 14.7786 1.50844 14.6565 1.38665C14.5344 1.26485 14.3707 1.1935 14.1981 1.18685C14.0255 1.1802 13.8568 1.23875 13.7256 1.35078L8.04104 7.02015L2.35647 1.34395C2.22735 1.21517 2.05222 1.14282 1.86961 1.14282C1.687 1.14282 1.51188 1.21517 1.38275 1.34395C1.25363 1.47272 1.18109 1.64738 1.18109 1.8295C1.18109 2.01162 1.25363 2.18628 1.38275 2.31506L7.07418 7.98442L1.38275 13.6538C1.31097 13.7151 1.25267 13.7905 1.21151 13.8754C1.17035 13.9602 1.14723 14.0526 1.14358 14.1468C1.13993 14.241 1.15584 14.3349 1.19032 14.4227C1.22479 14.5105 1.27708 14.5902 1.34391 14.6568C1.41073 14.7235 1.49065 14.7756 1.57865 14.81C1.66664 14.8444 1.76081 14.8602 1.85525 14.8566C1.94968 14.853 2.04235 14.8299 2.12742 14.7888C2.21249 14.7478 2.28814 14.6897 2.34961 14.6181L8.04104 8.94869L13.7256 14.6181C13.8568 14.7301 14.0255 14.7886 14.1981 14.782C14.3707 14.7753 14.5344 14.704 14.6565 14.5822C14.7786 14.4604 14.8502 14.2971 14.8568 14.125C14.8635 13.9529 14.8048 13.7846 14.6925 13.6538L9.0079 7.98442Z" fill="#023A4A"/>
</g>
<defs>
<clipPath id="clip0_6084_3659">
<rect width="13.7143" height="13.7143" fill="white" transform="translate(1.14307 1.14282)"/>
</clipPath>
</defs>
</svg>
