<svg width="20" height="20" viewBox="0 0 20 20" fill="none" xmlns="http://www.w3.org/2000/svg">
<g clip-path="url(#clip0_5813_2689)">
<path d="M19.0357 5.27983C18.9289 4.89894 18.7209 4.55411 18.4338 4.28198C18.1386 4.00148 17.7768 3.80083 17.3825 3.69898C15.907 3.31005 9.99526 3.31005 9.99526 3.31005C7.53074 3.28201 5.06682 3.40534 2.61741 3.67933C2.22313 3.78872 1.86199 3.99385 1.56612 4.27648C1.27541 4.55619 1.06484 4.90112 0.954836 5.27905C0.690595 6.70256 0.562209 8.14796 0.571408 9.59576C0.561979 11.0423 0.690051 12.4872 0.954836 13.9125C1.06248 14.2888 1.27226 14.6322 1.56376 14.9095C1.85526 15.1869 2.21826 15.3873 2.61741 15.4933C4.11262 15.8815 9.99526 15.8815 9.99526 15.8815C12.4629 15.9096 14.93 15.7862 17.3825 15.5122C17.7768 15.4103 18.1386 15.2097 18.4338 14.9292C18.7245 14.6518 18.9312 14.3069 19.0349 13.9313C19.306 12.5084 19.4379 11.0624 19.4285 9.61383C19.4489 8.15917 19.3173 6.70635 19.0357 5.27905V5.27983ZM8.11584 12.286V6.90626L13.0344 9.59655L8.11584 12.286Z" fill="#D1CD4B"/>
</g>
<defs>
<clipPath id="clip0_5813_2689">
<rect width="18.8571" height="18.8571" fill="white" transform="translate(0.571411 0.166992)"/>
</clipPath>
</defs>
</svg>
